# This file uses centimeters as units for non-parametric coordinates.

mtllib Ala4.mtl
g default
v 0.587323 -0.778802 -0.248851
v 0.592957 -0.779886 -0.235796
v 0.306361 -0.299875 -0.087828
v 0.311995 -0.300959 -0.074773
v 0.838880 -0.361711 -0.322797
v 0.487870 -0.273794 -0.164003
v 0.606393 -0.272693 -0.215065
v 0.725496 -0.302525 -0.268946
v 0.844515 -0.362795 -0.309742
v 0.731130 -0.303609 -0.255892
v 0.612027 -0.273777 -0.202010
v 0.493505 -0.274878 -0.150948
v 0.908307 -0.408392 -0.356637
v 0.941689 -0.450304 -0.374524
v 0.946776 -0.503426 -0.381129
v 0.921296 -0.544016 -0.373502
v 0.913941 -0.409476 -0.343582
v 0.926930 -0.545100 -0.360447
v 0.952411 -0.504510 -0.368075
v 0.947323 -0.451388 -0.361469
v 0.764590 -0.703291 -0.303514
v 0.816004 -0.665894 -0.322600
v 0.861705 -0.620467 -0.338553
v 0.708358 -0.732008 -0.281629
v 0.810977 -0.664341 -0.335878
v 0.759592 -0.701786 -0.316809
v 0.703382 -0.730548 -0.294936
v 0.856641 -0.618867 -0.351811
v 0.467164 -0.540828 -0.177235
v 0.472749 -0.541827 -0.164151
vt 0.742377 0.469199
vt 0.751175 0.471503
vt 1.000000 0.946410
vt 0.991278 0.944273
vt 0.719047 0.997830
vt 0.710325 0.995693
vt 0.167008 0.822350
vt 0.175729 0.824487
vt 0.068266 0.732449
vt 0.059545 0.730312
vt 0.039441 0.462910
vt 0.048162 0.465047
vt 0.149122 0.316451
vt 0.139518 0.315331
vt 0.342512 0.939045
vt 0.351234 0.941182
vt 0.526868 0.997863
vt 0.535590 1.000000
vt -0.000000 0.542939
vt 0.008721 0.545076
vt 0.007874 0.647676
vt 0.016596 0.649813
vt 0.376744 0.095139
vt 0.386484 0.096534
vt 0.565110 0.002137
vt 0.556389 0.000000
vt 0.219862 0.226886
vt 0.210200 0.225673
vt 0.299444 0.153152
vt 0.289738 0.151847
vn -0.779688 -0.554723 0.290464
vn -0.779420 -0.555185 0.290300
vn -0.750013 -0.602124 0.273728
vn -0.750018 -0.602124 0.273717
vn -0.091087 0.988419 0.121373
vn -0.091087 0.988419 0.121373
vn -0.046523 0.993638 0.102567
vn -0.046523 0.993638 0.102566
vn 0.452865 0.883174 -0.122139
vn 0.452865 0.883174 -0.122138
vn 0.585498 0.788760 -0.187218
vn 0.585498 0.788760 -0.187219
vn 0.692626 -0.629999 -0.351242
vn 0.692743 -0.630097 -0.350835
vn 0.642916 -0.691594 -0.329176
vn 0.641127 -0.693539 -0.328572
vn 0.330617 0.941557 -0.064523
vn 0.330617 0.941557 -0.064523
vn 0.131158 0.991029 0.025669
vn 0.131159 0.991029 0.025668
vn 0.753784 -0.542787 -0.370396
vn 0.753784 -0.542787 -0.370396
vn 0.913743 0.135155 -0.383153
vn 0.913744 0.135154 -0.383153
vn 0.913743 0.135155 -0.383153
vn 0.913744 0.135153 -0.383153
vn 0.703320 0.666118 -0.248249
vn 0.703320 0.666118 -0.248250
vn 0.324724 -0.919314 -0.222298
vn 0.322604 -0.920263 -0.221453
vn 0.303042 -0.929887 -0.208508
vn 0.303183 -0.929941 -0.208064
vn 0.551924 -0.777966 -0.300248
vn 0.556452 -0.774463 -0.300945
vn 0.429434 -0.864953 -0.259698
vn 0.434348 -0.862198 -0.260684
vn 0.395120 -0.076002 0.915480
vn 0.395120 -0.076002 0.915480
vn 0.395120 -0.076002 0.915480
vn 0.395120 -0.076002 0.915480
vn 0.395120 -0.076002 0.915480
vn 0.395120 -0.076002 0.915480
vn 0.395120 -0.076002 0.915480
vn 0.395121 -0.076002 0.915480
vn 0.395120 -0.076002 0.915480
vn 0.395120 -0.076002 0.915480
vn 0.395120 -0.076002 0.915480
vn 0.395120 -0.076002 0.915480
vn 0.395120 -0.076003 0.915480
vn 0.395120 -0.076002 0.915480
vn 0.395123 -0.076001 0.915479
vn -0.395120 0.076002 -0.915480
vn -0.395120 0.076002 -0.915480
vn -0.395120 0.076002 -0.915480
vn -0.395120 0.076002 -0.915480
vn -0.395120 0.076002 -0.915480
vn -0.395120 0.076002 -0.915480
vn -0.395120 0.076002 -0.915480
vn -0.395120 0.076002 -0.915480
vn -0.395120 0.076002 -0.915480
vn -0.395120 0.076002 -0.915480
vn -0.395120 0.076003 -0.915480
vn -0.395120 0.076003 -0.915480
vn -0.395121 0.076002 -0.915480
vn -0.395120 0.076003 -0.915480
vn -0.395120 0.076002 -0.915480
vn -0.808952 -0.501010 0.307548
vn -0.808958 -0.501010 0.307534
s 1
g pCube6
usemtl initialShadingGroup
f 29/1/1 30/2/2 3/4/3
f 3/4/3 30/2/2 4/3/4
s 2
f 3/4/5 4/3/6 6/6/7
f 6/6/7 4/3/6 12/5/8
f 5/7/9 9/8/10 13/10/11
f 13/10/11 9/8/10 17/9/12
s 4
f 16/11/13 18/12/14 28/14/15
f 28/14/15 18/12/14 23/13/16
s 2
f 5/7/9 8/15/17 9/8/10
f 9/8/10 8/15/17 10/16/18
f 8/15/17 7/17/19 10/16/18
f 10/16/18 7/17/19 11/18/20
f 7/17/19 6/6/7 11/18/20
f 11/18/20 6/6/7 12/5/8
s 4
f 16/11/13 15/19/21 18/12/14
f 18/12/14 15/19/21 19/20/22
s 5
f 15/19/23 14/21/24 19/20/25
f 19/20/25 14/21/24 20/22/26
s 2
f 14/21/27 13/10/11 20/22/28
f 20/22/28 13/10/11 17/9/12
s 4
f 27/23/29 24/24/30 1/26/31
f 1/26/31 24/24/30 2/25/32
f 23/13/16 22/27/33 28/14/15
f 28/14/15 22/27/33 25/28/34
f 22/27/33 21/29/35 25/28/34
f 25/28/34 21/29/35 26/30/36
f 21/29/35 24/24/30 26/30/36
f 26/30/36 24/24/30 27/23/29
s 7
usemtl lambert3SG
f 4/3/37 30/2/38 12/5/39
f 2/25/40 24/24/41 30/2/38
f 12/5/39 30/2/38 11/18/42
f 30/2/38 24/24/41 11/18/42
f 11/18/42 24/24/41 10/16/43
f 24/24/41 21/29/44 10/16/43
f 21/29/44 22/27/45 10/16/43
f 10/16/43 22/27/45 9/8/46
f 22/27/45 23/13/47 9/8/46
f 23/13/47 18/12/48 9/8/46
f 9/8/46 18/12/48 17/9/49
f 18/12/48 19/20/50 17/9/49
f 19/20/50 20/22/51 17/9/49
s 9
f 3/4/52 6/6/53 29/1/54
f 1/26/55 29/1/54 27/23/56
f 6/6/53 7/17/57 29/1/54
f 29/1/54 7/17/57 27/23/56
f 7/17/57 8/15/58 27/23/56
f 27/23/56 8/15/58 26/30/59
f 26/30/59 8/15/58 25/28/60
f 8/15/58 5/7/61 25/28/60
f 25/28/60 5/7/61 28/14/62
f 28/14/62 5/7/61 16/11/63
f 5/7/61 13/10/64 16/11/63
f 13/10/64 14/21/65 16/11/63
f 14/21/65 15/19/66 16/11/63
s 1
usemtl initialShadingGroup
f 1/26/67 2/25/68 29/1/1
f 29/1/1 2/25/68 30/2/2
