# This file uses centimeters as units for non-parametric coordinates.

mtllib Cama4Base.mtl
g default
v 1.367044 4.184795 -0.584459
v 1.428966 4.142452 -0.584459
v 1.428966 4.142452 -0.782595
v 1.367044 4.184795 -0.782595
v 1.442964 4.114909 -0.584459
v 1.442964 4.114909 -0.782595
v 1.455667 4.086594 -0.782595
v 1.455667 4.086594 -0.584459
v 1.233895 4.241682 -0.584459
v 1.233895 4.241682 -0.782595
v 1.011037 4.279569 -0.584459
v 1.091956 4.279569 -0.584459
v 1.091956 4.279569 -0.584459
v 1.011037 4.279569 -0.584459
v 1.091956 4.279569 -0.584459
v 1.011037 4.279569 -0.584459
v 1.011037 4.279569 -0.584459
v 1.091956 4.279569 -0.584459
v 1.091956 4.279569 -0.782595
v 1.091956 4.279569 -0.782595
v 1.091956 4.279569 -0.782595
v 1.091956 4.279569 -0.782595
v 1.011037 4.279569 -0.782595
v 1.557729 3.465233 -0.584363
v 1.557729 3.465233 -0.782689
v 1.557729 4.086594 -0.782689
v 1.557729 4.086594 -0.584363
v 1.011037 4.279569 -0.782595
v 1.011037 4.279569 -0.782595
v 1.011037 4.279569 -0.782595
v 0.869098 4.241682 -0.584459
v 0.869098 4.241682 -0.782595
v 0.735949 4.184795 -0.584459
v 0.735949 4.184795 -0.782595
v 0.545264 3.465233 -0.584363
v 0.545264 4.086594 -0.584363
v 0.674027 4.142452 -0.782595
v 0.674027 4.142452 -0.584459
v 0.545264 4.086594 -0.782689
v 0.647326 4.086594 -0.782595
v 0.660029 4.114909 -0.584459
v 0.660029 4.114909 -0.782595
v 0.647326 4.086594 -0.584459
v 0.545264 3.465233 -0.782689
vt 0.811663 0.000482
vt 0.872822 0.000482
vt 0.811663 0.999525
vt 0.872822 0.999525
vt 0.886648 0.000482
vt 0.886648 0.999525
vt 0.899195 0.999525
vt 0.899195 0.000482
vt 0.680153 0.000482
vt 0.680153 0.999525
vt 0.487489 0.250000
vt 0.512511 0.250000
vt 0.487489 0.250000
vt 0.512511 0.250000
vt 0.487489 0.250000
vt 0.512511 0.250000
vt 0.487489 0.250000
vt 0.487489 0.250000
vt 0.487489 0.250000
vt 0.539961 0.000482
vt 0.539961 0.999525
vt 0.539961 0.000481
vt 0.539961 0.000482
vt 0.539961 0.999525
vt 0.539961 0.999525
vt 0.539961 0.000482
vt 0.539961 0.999525
vt 0.460039 0.999525
vt 0.460039 0.000482
vt 1.000000 0.000000
vt 1.000000 1.000000
vt 1.000000 0.000000
vt 1.000000 1.000000
vt 0.460039 0.999525
vt 0.460039 0.000481
vt 0.460039 0.999525
vt 0.460039 0.000482
vt 0.460039 0.999525
vt 0.460039 0.000482
vt 0.512511 0.500000
vt 0.512511 0.500000
vt 0.512511 0.500000
vt 0.512511 0.500000
vt 0.512511 0.500000
vt 0.512511 0.500000
vt 0.512511 0.500000
vt 0.512511 0.500000
vt 0.319847 0.000482
vt 0.319847 0.999525
vt 0.188337 0.000482
vt 0.188337 0.999525
vt 0.270184 0.272358
vt 0.729816 0.272358
vt 0.270184 0.610539
vt 0.729816 0.610539
vt 0.127178 0.999525
vt 0.127178 0.000482
vt 0.000000 1.000000
vt 0.100805 0.999525
vt 1.000000 1.000000
vt 1.000000 0.000000
vt 0.113352 0.000482
vt 0.113352 0.999525
vt 0.100805 0.000482
vt 0.255934 0.617402
vt 0.744066 0.617402
vt 0.255934 0.276825
vt 0.744066 0.276825
vt 0.000000 0.000000
vt 0.000000 1.000000
vt 0.000000 0.000000
vt 0.000000 1.000000
vt 0.000000 0.000000
vt 0.683483 0.610539
vt 0.677716 0.625950
vt 0.316517 0.610539
vt 0.322284 0.625950
vt 0.671361 0.640940
vt 0.643250 0.663986
vt 0.582804 0.694947
vt 0.518367 0.715567
vt 0.481633 0.715567
vt 0.417196 0.694947
vt 0.328639 0.640940
vt 0.356750 0.663986
vt 0.305140 0.617402
vt 0.311265 0.632922
vt 0.694860 0.617402
vt 0.688735 0.632922
vt 0.318014 0.648019
vt 0.347867 0.671228
vt 0.412061 0.702408
vt 0.480494 0.723175
vt 0.519506 0.723175
vt 0.587939 0.702408
vt 0.681986 0.648019
vt 0.652133 0.671228
vn 0.564466 0.825456 0.000000
vn 0.564467 0.825456 0.000000
vn 0.564466 0.825456 0.000000
vn 0.453397 0.891309 0.000000
vn 0.677266 0.735738 0.000000
vn 0.677266 0.735739 0.000000
vn 0.677266 0.735738 0.000000
vn 0.902217 0.431283 0.000000
vn 0.677266 0.735739 0.000000
vn 0.677266 0.735739 0.000000
vn 0.902217 0.431283 0.000000
vn 0.902217 0.431283 0.000000
vn 0.912389 0.409324 0.000000
vn 0.902217 0.431283 0.000000
vn 0.912389 0.409324 0.000000
vn 0.912389 0.409324 0.000000
vn 0.902217 0.431283 0.000000
vn 0.902217 0.431283 0.000000
vn 0.325732 0.945462 0.000000
vn 0.453397 0.891309 0.000000
vn 0.325732 0.945462 0.000000
vn 0.325732 0.945462 0.000000
vn 0.453397 0.891309 0.000000
vn 0.453397 0.891309 0.000000
vn 0.000000 -1.000000 0.000000
vn 0.000000 -1.000000 0.000000
vn 0.000000 -1.000000 0.000000
vn 0.000000 -1.000000 0.000000
vn 0.000000 -1.000000 0.000000
vn 0.000000 -1.000000 0.000000
vn 0.000000 1.000000 0.000000
vn 0.000000 1.000000 0.000000
vn 0.000000 1.000000 0.000000
vn 0.000000 1.000000 0.000000
vn 0.000000 1.000000 0.000000
vn 0.000000 1.000000 0.000000
vn 0.000000 0.000000 0.000000
vn 0.000000 0.000000 0.000000
vn 0.000000 0.000000 0.000000
vn 0.000000 0.000000 0.000000
vn 0.000000 0.000000 0.000000
vn 0.000000 0.000000 0.000000
vn 0.257898 0.966172 0.000000
vn 0.325732 0.945462 0.000000
vn 0.257898 0.966172 0.000000
vn 0.257898 0.966172 0.000000
vn 0.325732 0.945462 0.000000
vn 0.325732 0.945462 0.000000
vn 0.000000 0.000000 0.000000
vn 0.000000 0.000000 0.000000
vn 0.000000 0.000000 0.000000
vn 0.000000 0.000000 0.000000
vn 0.000000 0.000000 0.000000
vn 0.000000 0.000000 0.000000
vn 0.000000 0.000000 0.000000
vn 0.000000 0.000000 0.000000
vn 0.000000 0.000000 0.000000
vn 0.000000 0.000000 0.000000
vn 0.000000 0.000000 0.000000
vn 0.000000 0.000000 0.000000
vn 0.000000 0.000000 0.000000
vn 0.000000 0.000000 0.000000
vn 0.000000 0.000000 0.000000
vn 0.000000 0.000000 0.000000
vn 0.000000 0.000000 0.000000
vn 0.000000 0.000000 0.000000
vn 0.000000 1.000000 0.000000
vn 0.000000 1.000000 0.000000
vn 0.000000 1.000000 0.000000
vn 0.000000 1.000000 0.000000
vn 0.000000 1.000000 0.000000
vn 0.000000 1.000000 0.000000
vn 1.000000 0.000000 0.000000
vn 1.000000 0.000000 0.000000
vn 1.000000 0.000000 0.000000
vn 1.000000 0.000000 0.000000
vn 1.000000 0.000000 0.000000
vn 1.000000 0.000000 0.000000
vn 0.000000 0.000000 0.000000
vn 0.000000 0.000000 0.000000
vn 0.000000 0.000000 0.000000
vn 0.000000 0.000000 0.000000
vn 0.000000 0.000000 0.000000
vn 0.000000 0.000000 0.000000
vn 0.000000 0.000000 0.000000
vn 0.000000 0.000000 0.000000
vn 0.000000 0.000000 0.000000
vn 0.000000 0.000000 0.000000
vn 0.000000 0.000000 0.000000
vn 0.000000 0.000000 0.000000
vn 0.000000 0.000000 0.000000
vn 0.000000 0.000000 0.000000
vn 0.000000 0.000000 0.000000
vn 0.000000 0.000000 0.000000
vn 0.000000 0.000000 0.000000
vn 0.000000 0.000000 0.000000
vn 0.000000 0.000000 0.000000
vn 0.000000 0.000000 0.000000
vn 0.000000 0.000000 0.000000
vn 0.000000 0.000000 0.000000
vn 0.000000 0.000000 0.000000
vn 0.000000 0.000000 0.000000
vn 0.000000 0.000000 0.000000
vn 0.000000 0.000000 0.000000
vn 0.000000 0.000000 0.000000
vn 0.000000 0.000000 0.000000
vn 0.000000 0.000000 0.000000
vn 0.000000 0.000000 0.000000
vn 0.000000 0.000000 0.000000
vn 0.000000 0.000000 0.000000
vn 0.000000 0.000000 0.000000
vn 0.000000 0.000000 0.000000
vn 0.000000 0.000000 0.000000
vn 0.000000 0.000000 0.000000
vn -0.325732 0.945462 0.000000
vn -0.257898 0.966172 0.000000
vn -0.325732 0.945462 0.000000
vn -0.325732 0.945462 0.000000
vn -0.257898 0.966172 0.000000
vn -0.257898 0.966172 0.000000
vn -0.453397 0.891309 0.000000
vn -0.325732 0.945462 0.000000
vn -0.453397 0.891309 0.000000
vn -0.453397 0.891309 0.000000
vn -0.325732 0.945462 0.000000
vn -0.325732 0.945462 0.000000
vn 0.000000 0.000000 1.000000
vn 0.000000 0.000000 1.000000
vn 0.000000 0.000000 1.000000
vn 0.000000 0.000000 1.000000
vn 0.000000 0.000000 1.000000
vn 0.000000 0.000000 1.000000
vn -0.677266 0.735738 0.000000
vn -0.677266 0.735739 0.000000
vn -0.453397 0.891309 0.000000
vn -0.453397 0.891309 0.000000
vn -0.677266 0.735739 0.000000
vn -0.453397 0.891309 0.000000
vn 0.000000 1.000000 0.000000
vn 0.000000 1.000000 0.000000
vn 0.000000 1.000000 0.000000
vn 0.000000 1.000000 0.000000
vn 0.000000 1.000000 0.000000
vn 0.000000 1.000000 0.000000
vn 0.000000 1.000000 0.000000
vn 0.000000 1.000000 0.000000
vn 0.000000 1.000000 0.000000
vn 0.000000 1.000000 0.000000
vn 0.000000 1.000000 0.000000
vn 0.000000 1.000000 0.000000
vn -0.902217 0.431283 0.000000
vn -0.677266 0.735739 0.000000
vn -0.902217 0.431283 0.000000
vn -0.902217 0.431283 0.000000
vn -0.677266 0.735739 0.000000
vn -0.677266 0.735738 0.000000
vn -0.912389 0.409324 0.000000
vn -0.902217 0.431283 0.000000
vn -0.912389 0.409324 0.000000
vn -0.912389 0.409324 0.000000
vn -0.902217 0.431283 0.000000
vn -0.902217 0.431283 0.000000
vn 0.000000 0.000000 -1.000000
vn 0.000000 0.000000 -1.000000
vn 0.000000 0.000000 -1.000000
vn 0.000000 0.000000 -1.000000
vn 0.000000 0.000000 -1.000000
vn 0.000000 0.000000 -1.000000
vn 0.000000 -1.000000 0.000000
vn 0.000000 -1.000000 0.000000
vn 0.000000 -1.000000 0.000000
vn 0.000000 -1.000000 0.000000
vn 0.000000 -1.000000 0.000000
vn 0.000000 -1.000000 0.000000
vn 0.000000 1.000000 0.000000
vn 0.000000 1.000000 0.000000
vn 0.000000 1.000000 0.000000
vn 0.000000 1.000000 0.000000
vn 0.000000 1.000000 0.000000
vn 0.000000 1.000000 0.000000
vn 0.000000 1.000000 0.000000
vn 0.000000 1.000000 0.000000
vn 0.000000 1.000000 0.000000
vn 0.000000 1.000000 0.000000
vn 0.000000 1.000000 0.000000
vn 0.000000 1.000000 0.000000
vn -1.000000 0.000000 0.000000
vn -1.000000 0.000000 0.000000
vn -1.000000 0.000000 0.000000
vn -1.000000 0.000000 0.000000
vn -1.000000 0.000000 0.000000
vn -1.000000 0.000000 0.000000
vn 0.000000 0.000000 1.000000
vn 0.000000 0.000000 1.000000
vn 0.000000 0.000000 1.000000
vn 0.000000 0.000000 1.000000
vn 0.000000 0.000000 1.000000
vn 0.000000 0.000000 1.000000
vn 0.000000 0.000000 1.000000
vn 0.000000 0.000000 1.000000
vn 0.000000 0.000000 1.000000
vn 0.000000 0.000000 1.000000
vn 0.000000 0.000000 1.000000
vn 0.000000 0.000000 1.000000
vn 0.000000 0.000000 1.000000
vn 0.000000 0.000000 1.000000
vn 0.000000 0.000000 1.000000
vn 0.000000 0.000000 1.000000
vn 0.000000 0.000000 1.000000
vn 0.000000 0.000000 1.000000
vn 0.000000 0.000000 1.000000
vn 0.000000 0.000000 1.000000
vn 0.000000 0.000000 1.000000
vn 0.000000 0.000000 1.000000
vn 0.000002 0.000000 1.000000
vn 0.000000 0.000000 1.000000
vn 0.000000 0.000000 1.000000
vn 0.000002 0.000000 1.000000
vn 0.000001 0.000000 1.000000
vn 0.000002 0.000000 1.000000
vn 0.000000 0.000000 1.000000
vn 0.000001 0.000000 1.000000
vn 0.000000 0.000000 -1.000000
vn 0.000000 0.000000 -1.000000
vn 0.000000 0.000000 -1.000000
vn 0.000000 0.000000 -1.000000
vn 0.000000 0.000000 -1.000000
vn 0.000000 0.000000 -1.000000
vn 0.000000 0.000000 -1.000000
vn 0.000000 0.000000 -1.000000
vn 0.000000 0.000000 -1.000000
vn 0.000000 0.000000 -1.000000
vn 0.000000 0.000000 -1.000000
vn 0.000000 0.000000 -1.000000
vn 0.000000 0.000000 -1.000000
vn -0.000000 0.000000 -1.000000
vn 0.000000 0.000000 -1.000000
vn -0.000000 0.000000 -1.000000
vn -0.000000 0.000000 -1.000000
vn 0.000000 0.000000 -1.000000
vn -0.000000 0.000000 -1.000000
vn 0.000000 0.000000 -1.000000
vn 0.000000 0.000000 -1.000000
vn 0.000000 0.000000 -1.000000
vn -0.000000 0.000000 -1.000000
vn 0.000000 0.000000 -1.000000
vn 0.000000 0.000000 -1.000000
vn -0.000000 0.000000 -1.000000
vn 0.000002 0.000000 -1.000000
vn -0.000000 0.000000 -1.000000
vn -0.000010 0.000000 -1.000000
vn 0.000002 0.000000 -1.000000
s off
g pasted__Cama_pCube25 group
usemtl pasted__Cama_phong1SG
f 1/1/1 2/2/2 4/3/3
f 4/3/4 2/2/5 3/4/6
f 2/2/7 5/5/8 3/4/9
f 3/4/10 5/5/11 6/6/12
f 7/7/13 6/6/14 8/8/15
f 8/8/16 6/6/17 5/5/18
f 9/9/19 1/1/20 10/10/21
f 10/10/22 1/1/23 4/3/24
f 11/11/25 12/12/26 14/13/27
f 14/13/28 12/12/29 13/14/30
f 14/13/31 13/14/32 16/15/33
f 16/15/34 13/14/35 15/16/36
f 11/11/37 17/17/38 12/18/39
f 17/17/40 18/19/41 12/18/42
f 18/20/43 9/9/44 19/21/45
f 19/21/46 9/9/47 10/10/48
f 13/22/49 12/23/50 21/24/51
f 12/23/52 20/25/53 21/24/54
f 15/26/55 13/22/56 22/27/57
f 13/22/58 21/24/59 22/27/60
f 12/23/61 18/20/62 20/25/63
f 18/20/64 19/21/65 20/25/66
f 23/28/67 16/29/68 22/27/69
f 22/27/70 16/29/71 15/26/72
f 24/30/73 25/31/74 27/32/75
f 27/32/76 25/31/77 26/33/78
f 23/28/79 28/34/80 16/29/81
f 28/34/82 14/35/83 16/29/84
f 28/34/85 29/36/86 14/35/87
f 29/36/88 11/37/89 14/35/90
f 29/36/91 30/38/92 11/37/93
f 30/38/94 17/39/95 11/37/96
f 22/40/97 21/41/98 23/42/99
f 21/41/100 28/43/101 23/42/102
f 21/41/103 20/44/104 28/43/105
f 20/44/106 29/45/107 28/43/108
f 20/44/109 19/46/110 29/45/111
f 19/46/112 30/47/113 29/45/114
f 31/48/115 17/39/116 32/49/117
f 32/49/118 17/39/119 30/38/120
f 33/50/121 31/48/122 34/51/123
f 34/51/124 31/48/125 32/49/126
f 35/52/127 24/53/128 36/54/129
f 36/54/130 24/53/131 27/55/132
f 37/56/133 38/57/134 34/51/135
f 34/51/136 38/57/137 33/50/138
f 39/58/139 40/59/140 26/60/141
f 40/59/142 7/7/143 26/60/144
f 27/61/145 26/60/146 8/8/147
f 26/60/148 7/7/149 8/8/150
f 41/62/151 38/57/152 42/63/153
f 42/63/154 38/57/155 37/56/156
f 43/64/157 41/62/158 40/59/159
f 40/59/160 41/62/161 42/63/162
f 39/65/163 26/66/164 44/67/165
f 44/67/166 26/66/167 25/68/168
f 44/67/169 25/68/170 35/52/171
f 35/52/172 25/68/173 24/53/174
f 27/61/175 8/8/176 36/69/177
f 8/8/178 43/64/179 36/69/180
f 36/69/181 43/64/182 39/58/183
f 43/64/184 40/59/185 39/58/186
f 44/70/187 35/71/188 39/72/189
f 39/72/190 35/71/191 36/73/192
f 8/74/193 5/75/194 43/76/195
f 43/76/196 5/75/197 41/77/198
f 5/75/199 2/78/200 41/77/201
f 2/78/202 1/79/203 41/77/204
f 1/79/205 9/80/206 41/77/207
f 9/80/208 18/81/209 41/77/210
f 18/81/211 17/82/212 41/77/213
f 17/82/214 31/83/215 41/77/216
f 41/77/217 31/83/218 38/84/219
f 31/83/220 33/85/221 38/84/222
f 40/86/223 42/87/224 7/88/225
f 7/88/226 42/87/227 6/89/228
f 42/87/229 37/90/230 6/89/231
f 37/90/232 34/91/233 6/89/234
f 34/91/235 32/92/236 6/89/237
f 32/92/238 30/93/239 6/89/240
f 30/93/241 19/94/242 6/89/243
f 19/94/244 10/95/245 6/89/246
f 6/89/247 10/95/248 3/96/249
f 10/95/250 4/97/251 3/96/252
g default
v 0.546335 3.310514 -0.620200
v 0.718075 3.310514 -0.620200
v 0.546335 3.467542 -0.620200
v 0.718075 3.467542 -0.620200
v 0.546335 3.467542 -0.779737
v 0.718075 3.467542 -0.779737
v 0.546335 3.310514 -0.779737
v 0.718075 3.310514 -0.779737
vt 0.745764 1.000984
vt 0.495772 0.998984
vt 0.747764 0.750992
vt 0.497772 0.748992
vt 0.749764 0.501000
vt 0.499772 0.499000
vt 0.751764 0.251008
vt 0.501772 0.249008
vt 0.753764 0.001016
vt 0.503772 -0.000984
vt 0.245780 0.996984
vt 0.247780 0.746992
vt 0.995756 1.002984
vt 0.997756 0.752992
vn 0.000000 0.000000 1.000000
vn 0.000000 0.000000 1.000000
vn 0.000000 0.000000 1.000000
vn 0.000000 0.000000 1.000000
vn 0.000000 0.000000 1.000000
vn 0.000000 0.000000 1.000000
vn 0.000000 1.000000 0.000000
vn 0.000000 1.000000 0.000000
vn 0.000000 1.000000 0.000000
vn 0.000000 1.000000 0.000000
vn 0.000000 1.000000 0.000000
vn 0.000000 1.000000 0.000000
vn 0.000000 0.000000 -1.000000
vn 0.000000 0.000000 -1.000000
vn 0.000000 0.000000 -1.000000
vn 0.000000 0.000000 -1.000000
vn 0.000000 0.000000 -1.000000
vn 0.000000 0.000000 -1.000000
vn 0.000000 -1.000000 0.000000
vn 0.000000 -1.000000 0.000000
vn 0.000000 -1.000000 0.000000
vn 0.000000 -1.000000 0.000000
vn 0.000000 -1.000000 0.000000
vn 0.000000 -1.000000 0.000000
vn 1.000000 0.000000 0.000000
vn 1.000000 0.000000 0.000000
vn 1.000000 0.000000 0.000000
vn 1.000000 0.000000 0.000000
vn 1.000000 0.000000 0.000000
vn 1.000000 0.000000 0.000000
vn -1.000000 0.000000 0.000000
vn -1.000000 0.000000 0.000000
vn -1.000000 0.000000 0.000000
vn -1.000000 0.000000 0.000000
vn -1.000000 0.000000 0.000000
vn -1.000000 0.000000 0.000000
s off
g group pasted__Cama_pCube24
usemtl pasted__Cama_phong2SG
f 45/98/253 46/99/254 47/100/255
f 47/100/256 46/99/257 48/101/258
f 47/100/259 48/101/260 49/102/261
f 49/102/262 48/101/263 50/103/264
f 49/102/265 50/103/266 51/104/267
f 51/104/268 50/103/269 52/105/270
f 51/104/271 52/105/272 45/106/273
f 45/106/274 52/105/275 46/107/276
f 46/99/277 52/108/278 48/101/279
f 48/101/280 52/108/281 50/109/282
f 51/110/283 45/98/284 49/111/285
f 49/111/286 45/98/287 47/100/288
g default
v 0.545229 3.467138 0.930584
v 1.557764 3.467138 0.930584
v 0.545229 3.609355 0.930584
v 1.557764 3.609355 0.930584
v 0.545229 3.609355 -0.587584
v 1.557764 3.609355 -0.587584
v 0.545229 3.467138 -0.587584
v 1.557764 3.467138 -0.587584
vt 0.187326 0.276619
vt 0.812674 0.276619
vt 0.187326 0.723381
vt 0.812674 0.723381
vt 0.000000 1.000000
vt 1.000000 1.000000
vt 0.000000 0.000000
vt 1.000000 0.000000
vn 0.000000 0.000000 1.000000
vn 0.000000 0.000000 1.000000
vn 0.000000 0.000000 1.000000
vn 0.000000 0.000000 1.000000
vn 0.000000 0.000000 1.000000
vn 0.000000 0.000000 1.000000
vn 0.000000 1.000000 0.000000
vn 0.000000 1.000000 0.000000
vn 0.000000 1.000000 0.000000
vn 0.000000 1.000000 0.000000
vn 0.000000 1.000000 0.000000
vn 0.000000 1.000000 0.000000
vn 0.000000 0.000000 -1.000000
vn 0.000000 0.000000 -1.000000
vn 0.000000 0.000000 -1.000000
vn 0.000000 0.000000 -1.000000
vn 0.000000 0.000000 -1.000000
vn 0.000000 0.000000 -1.000000
vn 0.000000 -1.000000 0.000000
vn 0.000000 -1.000000 0.000000
vn 0.000000 -1.000000 0.000000
vn 0.000000 -1.000000 0.000000
vn 0.000000 -1.000000 0.000000
vn 0.000000 -1.000000 0.000000
vn 1.000000 0.000000 0.000000
vn 1.000000 0.000000 0.000000
vn 1.000000 0.000000 0.000000
vn 1.000000 0.000000 0.000000
vn 1.000000 0.000000 0.000000
vn 1.000000 0.000000 0.000000
vn -1.000000 0.000000 0.000000
vn -1.000000 0.000000 0.000000
vn -1.000000 0.000000 0.000000
vn -1.000000 0.000000 0.000000
vn -1.000000 0.000000 0.000000
vn -1.000000 0.000000 0.000000
s off
g Cama_pCube24
usemtl Cama_phong2SG
f 53/112/289 54/113/290 55/114/291
f 55/114/292 54/113/293 56/115/294
f 55/114/295 56/115/296 57/116/297
f 57/116/298 56/115/299 58/117/300
f 57/116/301 58/117/302 59/118/303
f 59/118/304 58/117/305 60/119/306
f 59/118/307 60/119/308 53/112/309
f 53/112/310 60/119/311 54/113/312
f 54/113/313 60/119/314 56/115/315
f 56/115/316 60/119/317 58/117/318
f 59/118/319 53/112/320 57/116/321
f 57/116/322 53/112/323 55/114/324
g default
v 0.546335 3.310597 0.929534
v 0.718075 3.310597 0.929534
v 0.546335 3.467459 0.929534
v 0.718075 3.467459 0.929534
v 0.546335 3.467459 0.769997
v 0.718075 3.467459 0.769997
v 0.546335 3.310597 0.769997
v 0.718075 3.310597 0.769997
vt 0.505202 1.000266
vt 0.255202 0.999732
vt 0.505735 0.750266
vt 0.255736 0.749733
vt 0.506269 0.500267
vt 0.256270 0.499733
vt 0.506803 0.250267
vt 0.256803 0.249734
vt 0.507336 0.000268
vt 0.257337 -0.000266
vt 0.005203 0.999198
vt 0.005737 0.749199
vt 0.755201 1.000799
vt 0.755735 0.750800
vn 0.000000 0.000000 1.000000
vn 0.000000 0.000000 1.000000
vn 0.000000 0.000000 1.000000
vn 0.000000 0.000000 1.000000
vn 0.000000 0.000000 1.000000
vn 0.000000 0.000000 1.000000
vn 0.000000 1.000000 0.000000
vn 0.000000 1.000000 0.000000
vn 0.000000 1.000000 0.000000
vn 0.000000 1.000000 0.000000
vn 0.000000 1.000000 0.000000
vn 0.000000 1.000000 0.000000
vn 0.000000 0.000000 -1.000000
vn 0.000000 0.000000 -1.000000
vn 0.000000 0.000000 -1.000000
vn 0.000000 0.000000 -1.000000
vn 0.000000 0.000000 -1.000000
vn 0.000000 0.000000 -1.000000
vn 0.000000 -1.000000 0.000000
vn 0.000000 -1.000000 0.000000
vn 0.000000 -1.000000 0.000000
vn 0.000000 -1.000000 0.000000
vn 0.000000 -1.000000 0.000000
vn 0.000000 -1.000000 0.000000
vn 1.000000 0.000000 0.000000
vn 1.000000 0.000000 0.000000
vn 1.000000 0.000000 0.000000
vn 1.000000 0.000000 0.000000
vn 1.000000 0.000000 0.000000
vn 1.000000 0.000000 0.000000
vn -1.000000 0.000000 0.000000
vn -1.000000 0.000000 0.000000
vn -1.000000 0.000000 0.000000
vn -1.000000 0.000000 0.000000
vn -1.000000 0.000000 0.000000
vn -1.000000 0.000000 0.000000
s off
g group pasted__Cama_pCube27
usemtl pasted__Cama_phong2SG
f 61/120/325 62/121/326 63/122/327
f 63/122/328 62/121/329 64/123/330
f 63/122/331 64/123/332 65/124/333
f 65/124/334 64/123/335 66/125/336
f 65/124/337 66/125/338 67/126/339
f 67/126/340 66/125/341 68/127/342
f 67/126/343 68/127/344 61/128/345
f 61/128/346 68/127/347 62/129/348
f 62/121/349 68/130/350 64/123/351
f 64/123/352 68/130/353 66/131/354
f 67/132/355 61/120/356 65/133/357
f 65/133/358 61/120/359 63/122/360
g default
v 1.384918 3.310514 0.929534
v 1.556658 3.310514 0.929534
v 1.384918 3.467542 0.929534
v 1.556658 3.467542 0.929534
v 1.384918 3.467542 0.769997
v 1.556658 3.467542 0.769997
v 1.384918 3.310514 0.769997
v 1.556658 3.310514 0.769997
vt 0.254257 0.000000
vt 0.504257 0.000000
vt 0.254257 0.250000
vt 0.504257 0.250000
vt 0.254257 0.500000
vt 0.504257 0.500000
vt 0.254257 0.750000
vt 0.504257 0.750000
vt 0.254257 1.000000
vt 0.504257 1.000000
vt 0.754257 0.000000
vt 0.754257 0.250000
vt 0.004257 0.000000
vt 0.004257 0.250000
vn 0.000000 0.000000 1.000000
vn 0.000000 0.000000 1.000000
vn 0.000000 0.000000 1.000000
vn 0.000000 0.000000 1.000000
vn 0.000000 0.000000 1.000000
vn 0.000000 0.000000 1.000000
vn 0.000000 1.000000 0.000000
vn 0.000000 1.000000 0.000000
vn 0.000000 1.000000 0.000000
vn 0.000000 1.000000 0.000000
vn 0.000000 1.000000 0.000000
vn 0.000000 1.000000 0.000000
vn 0.000000 0.000000 -1.000000
vn 0.000000 0.000000 -1.000000
vn 0.000000 0.000000 -1.000000
vn 0.000000 0.000000 -1.000000
vn 0.000000 0.000000 -1.000000
vn 0.000000 0.000000 -1.000000
vn 0.000000 -1.000000 0.000000
vn 0.000000 -1.000000 0.000000
vn 0.000000 -1.000000 0.000000
vn 0.000000 -1.000000 0.000000
vn 0.000000 -1.000000 0.000000
vn 0.000000 -1.000000 0.000000
vn 1.000000 0.000000 0.000000
vn 1.000000 0.000000 0.000000
vn 1.000000 0.000000 0.000000
vn 1.000000 0.000000 0.000000
vn 1.000000 0.000000 0.000000
vn 1.000000 0.000000 0.000000
vn -1.000000 0.000000 0.000000
vn -1.000000 0.000000 0.000000
vn -1.000000 0.000000 0.000000
vn -1.000000 0.000000 0.000000
vn -1.000000 0.000000 0.000000
vn -1.000000 0.000000 0.000000
s off
g group pasted__Cama_pCube26
usemtl pasted__Cama_phong2SG
f 69/134/361 70/135/362 71/136/363
f 71/136/364 70/135/365 72/137/366
f 71/136/367 72/137/368 73/138/369
f 73/138/370 72/137/371 74/139/372
f 73/138/373 74/139/374 75/140/375
f 75/140/376 74/139/377 76/141/378
f 75/140/379 76/141/380 69/142/381
f 69/142/382 76/141/383 70/143/384
f 70/135/385 76/144/386 72/137/387
f 72/137/388 76/144/389 74/145/390
f 75/146/391 69/134/392 73/147/393
f 73/147/394 69/134/395 71/136/396
g default
v 1.384918 3.310514 -0.584995
v 1.556658 3.310514 -0.584995
v 1.384918 3.467542 -0.584995
v 1.556658 3.467542 -0.584995
v 1.384918 3.467542 -0.782057
v 1.556658 3.467542 -0.782057
v 1.384918 3.310514 -0.782057
v 1.556658 3.310514 -0.782057
vt 0.499768 0.000000
vt 0.749768 0.000000
vt 0.499768 0.250000
vt 0.749768 0.250000
vt 0.499768 0.500000
vt 0.749768 0.500000
vt 0.499768 0.750000
vt 0.749768 0.750000
vt 0.499768 1.000000
vt 0.749768 1.000000
vt 0.999768 0.000000
vt 0.999768 0.250000
vt 0.249768 0.000000
vt 0.249768 0.250000
vn 0.000000 0.000000 1.000000
vn 0.000000 0.000000 1.000000
vn 0.000000 0.000000 1.000000
vn 0.000000 0.000000 1.000000
vn 0.000000 0.000000 1.000000
vn 0.000000 0.000000 1.000000
vn 0.000000 1.000000 0.000000
vn 0.000000 1.000000 0.000000
vn 0.000000 1.000000 0.000000
vn 0.000000 1.000000 0.000000
vn 0.000000 1.000000 0.000000
vn 0.000000 1.000000 0.000000
vn 0.000000 0.000000 -1.000000
vn 0.000000 0.000000 -1.000000
vn 0.000000 0.000000 -1.000000
vn 0.000000 0.000000 -1.000000
vn 0.000000 0.000000 -1.000000
vn 0.000000 0.000000 -1.000000
vn 0.000000 -1.000000 0.000000
vn 0.000000 -1.000000 0.000000
vn 0.000000 -1.000000 0.000000
vn 0.000000 -1.000000 0.000000
vn 0.000000 -1.000000 0.000000
vn 0.000000 -1.000000 0.000000
vn 1.000000 0.000000 0.000000
vn 1.000000 0.000000 0.000000
vn 1.000000 0.000000 0.000000
vn 1.000000 0.000000 0.000000
vn 1.000000 0.000000 0.000000
vn 1.000000 0.000000 0.000000
vn -1.000000 0.000000 0.000000
vn -1.000000 0.000000 0.000000
vn -1.000000 0.000000 0.000000
vn -1.000000 0.000000 0.000000
vn -1.000000 0.000000 0.000000
vn -1.000000 0.000000 0.000000
s off
g Cama_pCube28
usemtl Cama_phong2SG
f 77/148/397 78/149/398 79/150/399
f 79/150/400 78/149/401 80/151/402
f 79/150/403 80/151/404 81/152/405
f 81/152/406 80/151/407 82/153/408
f 81/152/409 82/153/410 83/154/411
f 83/154/412 82/153/413 84/155/414
f 83/154/415 84/155/416 77/156/417
f 77/156/418 84/155/419 78/157/420
f 78/149/421 84/158/422 80/151/423
f 80/151/424 84/158/425 82/159/426
f 83/160/427 77/148/428 81/161/429
f 81/161/430 77/148/431 79/150/432
