# This file uses centimeters as units for non-parametric coordinates.

mtllib Mesa.mtl
g default
v 1.448480 0.204235 2.083526
v 1.732591 0.204235 2.083526
v 1.495579 0.506273 2.083526
v 1.736141 0.506273 2.083526
v 1.495579 0.506273 1.842964
v 1.736141 0.506273 1.842964
v 1.448480 0.204235 1.842964
v 1.732591 0.204235 1.842964
v 1.470224 0.343678 2.083526
v 1.470224 0.343678 1.842964
v 1.723654 0.343678 1.842964
v 1.723654 0.343678 2.083526
vt 0.375000 0.000000
vt 0.625000 0.000000
vt 0.625000 0.115418
vt 0.375000 0.115418
vt 0.375000 0.250000
vt 0.625000 0.250000
vt 0.625000 0.500000
vt 0.375000 0.500000
vt 0.375000 0.634582
vt 0.625000 0.634582
vt 0.625000 0.750000
vt 0.375000 0.750000
vt 0.625000 1.000000
vt 0.375000 1.000000
vt 0.875000 0.000000
vt 0.875000 0.115418
vt 0.125000 0.000000
vt 0.125000 0.115418
vt 0.125000 0.250000
vt 0.875000 0.250000
vn 0.000000 0.000000 1.000000
vn 0.000000 0.000000 1.000000
vn 0.000000 0.000000 1.000000
vn 0.000000 0.000000 1.000000
vn 0.000000 1.000000 0.000000
vn 0.000000 1.000000 0.000000
vn 0.000000 1.000000 0.000000
vn 0.000000 1.000000 0.000000
vn 0.000000 0.000000 -1.000000
vn 0.000000 0.000000 -1.000000
vn 0.000000 0.000000 -1.000000
vn 0.000000 0.000000 -1.000000
vn 0.000000 -1.000000 0.000000
vn 0.000000 -1.000000 0.000000
vn 0.000000 -1.000000 0.000000
vn 0.000000 -1.000000 0.000000
vn 0.997952 0.063961 0.000000
vn 0.997952 0.063961 0.000000
vn 0.999931 -0.011752 0.000000
vn 0.999931 -0.011752 0.000000
vn -0.988059 0.154077 0.000000
vn -0.988059 0.154077 0.000000
vn -0.988059 0.154077 0.000000
vn -0.988059 0.154077 0.000000
vn -0.988059 0.154077 0.000000
vn -0.988059 0.154077 0.000000
vn -0.988059 0.154077 0.000000
vn -0.988059 0.154077 0.000000
vn 0.000000 0.000000 -1.000000
vn 0.000000 0.000000 -1.000000
vn 0.000000 0.000000 -1.000000
vn 0.000000 0.000000 -1.000000
vn 0.999931 -0.011752 0.000000
vn 0.999931 -0.011752 0.000000
vn 0.997064 -0.076573 0.000000
vn 0.997064 -0.076573 0.000000
vn 0.000000 0.000000 1.000000
vn 0.000000 0.000000 1.000000
vn 0.000000 0.000000 1.000000
vn 0.000000 0.000000 1.000000
s off
g MesaNew_pCube2
usemtl MesaNew_lambert3SG
f 1/1/1 2/2/2 12/3/3 9/4/4
f 3/5/5 4/6/6 6/7/7 5/8/8
f 10/9/9 11/10/10 8/11/11 7/12/12
f 7/12/13 8/11/14 2/13/15 1/14/16
f 2/2/17 8/15/18 11/16/19 12/3/20
f 7/17/21 1/1/22 9/4/23 10/18/24
f 10/18/25 9/4/26 3/5/27 5/19/28
f 5/8/29 6/7/30 11/10/31 10/9/32
f 12/3/33 11/16/34 6/20/35 4/6/36
f 9/4/37 12/3/38 4/6/39 3/5/40
g default
v 3.270516 0.204235 1.842964
v 2.986404 0.204235 1.842964
v 3.223416 0.506273 1.842964
v 2.982855 0.506273 1.842964
v 3.223416 0.506273 2.083526
v 2.982855 0.506273 2.083526
v 3.270516 0.204235 2.083526
v 2.986404 0.204235 2.083526
v 3.248771 0.343678 1.842964
v 3.248771 0.343678 2.083526
v 2.995342 0.343678 2.083526
v 2.995342 0.343678 1.842964
vt 0.375000 0.000000
vt 0.625000 0.000000
vt 0.625000 0.115418
vt 0.375000 0.115418
vt 0.375000 0.250000
vt 0.625000 0.250000
vt 0.625000 0.500000
vt 0.375000 0.500000
vt 0.375000 0.634582
vt 0.625000 0.634582
vt 0.625000 0.750000
vt 0.375000 0.750000
vt 0.625000 1.000000
vt 0.375000 1.000000
vt 0.875000 0.000000
vt 0.875000 0.115418
vt 0.125000 0.000000
vt 0.125000 0.115418
vt 0.125000 0.250000
vt 0.875000 0.250000
vn 0.000000 0.000000 -1.000000
vn 0.000000 0.000000 -1.000000
vn 0.000000 0.000000 -1.000000
vn 0.000000 0.000000 -1.000000
vn 0.000000 1.000000 0.000000
vn 0.000000 1.000000 0.000000
vn 0.000000 1.000000 0.000000
vn 0.000000 1.000000 0.000000
vn 0.000000 0.000000 1.000000
vn 0.000000 0.000000 1.000000
vn 0.000000 0.000000 1.000000
vn 0.000000 0.000000 1.000000
vn 0.000000 -1.000000 0.000000
vn 0.000000 -1.000000 0.000000
vn 0.000000 -1.000000 0.000000
vn 0.000000 -1.000000 0.000000
vn -0.997952 0.063960 -0.000000
vn -0.997952 0.063960 -0.000000
vn -0.999931 -0.011753 0.000000
vn -0.999931 -0.011753 0.000000
vn 0.988059 0.154077 0.000000
vn 0.988059 0.154077 0.000000
vn 0.988059 0.154077 0.000000
vn 0.988059 0.154077 0.000000
vn 0.988059 0.154077 0.000000
vn 0.988059 0.154077 0.000000
vn 0.988059 0.154077 0.000000
vn 0.988059 0.154077 0.000000
vn 0.000000 0.000000 1.000000
vn 0.000000 0.000000 1.000000
vn 0.000000 0.000000 1.000000
vn 0.000000 0.000000 1.000000
vn -0.999931 -0.011753 0.000000
vn -0.999931 -0.011753 0.000000
vn -0.997064 -0.076573 0.000000
vn -0.997064 -0.076573 0.000000
vn 0.000000 0.000000 -1.000000
vn 0.000000 0.000000 -1.000000
vn 0.000000 0.000000 -1.000000
vn 0.000000 0.000000 -1.000000
s off
g pCube3
usemtl MesaNew_lambert3SG
f 13/21/41 14/22/42 24/23/43 21/24/44
f 15/25/45 16/26/46 18/27/47 17/28/48
f 22/29/49 23/30/50 20/31/51 19/32/52
f 19/32/53 20/31/54 14/33/55 13/34/56
f 14/22/57 20/35/58 23/36/59 24/23/60
f 19/37/61 13/21/62 21/24/63 22/38/64
f 22/38/65 21/24/66 15/25/67 17/39/68
f 17/28/69 18/27/70 23/30/71 22/29/72
f 24/23/73 23/36/74 18/40/75 16/26/76
f 21/24/77 24/23/78 16/26/79 15/25/80
g default
v 3.270516 0.204235 0.859813
v 2.986404 0.204235 0.859813
v 3.223416 0.506273 0.859813
v 2.982855 0.506273 0.859813
v 3.223416 0.506273 1.100375
v 2.982855 0.506273 1.100375
v 3.270516 0.204235 1.100375
v 2.986404 0.204235 1.100375
v 3.248771 0.343678 0.859813
v 3.248771 0.343678 1.100375
v 2.995342 0.343678 1.100375
v 2.995342 0.343678 0.859813
vt 0.375000 0.000000
vt 0.625000 0.000000
vt 0.625000 0.115418
vt 0.375000 0.115418
vt 0.375000 0.250000
vt 0.625000 0.250000
vt 0.625000 0.500000
vt 0.375000 0.500000
vt 0.375000 0.634582
vt 0.625000 0.634582
vt 0.625000 0.750000
vt 0.375000 0.750000
vt 0.625000 1.000000
vt 0.375000 1.000000
vt 0.875000 0.000000
vt 0.875000 0.115418
vt 0.125000 0.000000
vt 0.125000 0.115418
vt 0.125000 0.250000
vt 0.875000 0.250000
vn 0.000000 0.000000 -1.000000
vn 0.000000 0.000000 -1.000000
vn 0.000000 0.000000 -1.000000
vn 0.000000 0.000000 -1.000000
vn 0.000000 1.000000 0.000000
vn 0.000000 1.000000 0.000000
vn 0.000000 1.000000 0.000000
vn 0.000000 1.000000 0.000000
vn 0.000000 0.000000 1.000000
vn 0.000000 0.000000 1.000000
vn 0.000000 0.000000 1.000000
vn 0.000000 0.000000 1.000000
vn 0.000000 -1.000000 0.000000
vn 0.000000 -1.000000 0.000000
vn 0.000000 -1.000000 0.000000
vn 0.000000 -1.000000 0.000000
vn -0.997952 0.063961 -0.000000
vn -0.997952 0.063961 -0.000000
vn -0.999931 -0.011753 0.000000
vn -0.999931 -0.011753 0.000000
vn 0.988059 0.154077 0.000000
vn 0.988059 0.154077 0.000000
vn 0.988059 0.154077 0.000000
vn 0.988059 0.154077 0.000000
vn 0.988059 0.154077 0.000000
vn 0.988059 0.154077 0.000000
vn 0.988059 0.154077 0.000000
vn 0.988059 0.154077 0.000000
vn 0.000000 0.000000 1.000000
vn 0.000000 0.000000 1.000000
vn 0.000000 0.000000 1.000000
vn 0.000000 0.000000 1.000000
vn -0.999931 -0.011753 0.000000
vn -0.999931 -0.011753 0.000000
vn -0.997064 -0.076573 0.000000
vn -0.997064 -0.076573 0.000000
vn 0.000000 0.000000 -1.000000
vn 0.000000 0.000000 -1.000000
vn 0.000000 0.000000 -1.000000
vn 0.000000 0.000000 -1.000000
s off
g MesaNew_pCube5
usemtl MesaNew_lambert3SG
f 25/41/81 26/42/82 36/43/83 33/44/84
f 27/45/85 28/46/86 30/47/87 29/48/88
f 34/49/89 35/50/90 32/51/91 31/52/92
f 31/52/93 32/51/94 26/53/95 25/54/96
f 26/42/97 32/55/98 35/56/99 36/43/100
f 31/57/101 25/41/102 33/44/103 34/58/104
f 34/58/105 33/44/106 27/45/107 29/59/108
f 29/48/109 30/47/110 35/50/111 34/49/112
f 36/43/113 35/56/114 30/60/115 28/46/116
f 33/44/117 36/43/118 28/46/119 27/45/120
g default
v 1.434393 0.495714 2.103606
v 1.513122 0.495714 2.173812
v 1.434393 0.670458 2.103606
v 1.513122 0.670458 2.173812
v 3.284492 0.495714 2.103606
v 3.205763 0.495714 2.173812
v 3.284492 0.670458 2.103606
v 3.205763 0.670458 2.173812
v 1.434393 0.670458 0.839768
v 1.513122 0.670458 0.769563
v 1.434393 0.495714 0.839768
v 1.513122 0.495714 0.769563
v 3.205763 0.670458 0.769563
v 3.284492 0.670458 0.839768
v 3.284492 0.495714 0.839768
v 3.205763 0.495714 0.769563
v 1.434393 0.670458 1.256643
v 1.434393 0.670458 1.149771
v 1.434393 0.495714 1.147809
v 1.434393 0.495714 1.252869
v 1.492595 0.670458 1.147379
v 1.547344 0.670458 1.152267
v 1.595424 0.670458 1.182739
v 1.598093 0.670458 1.223957
v 1.541371 0.670458 1.255313
v 1.484083 0.670458 1.259170
v 1.434393 0.670458 1.369133
v 1.434393 0.670458 1.296853
v 1.470711 0.670458 1.301019
v 1.510767 0.670458 1.319596
v 1.511598 0.670458 1.343169
v 1.470485 0.670458 1.365362
v 1.434393 0.579537 1.328996
v 1.434393 0.575647 1.200839
v 1.442620 0.554856 1.328996
v 1.442620 0.645777 1.296853
v 1.442620 0.645777 1.369133
v 1.478712 0.645777 1.365362
v 1.519824 0.645777 1.343169
v 1.518994 0.645777 1.319596
v 1.478937 0.645777 1.301019
v 1.442620 0.550966 1.200839
v 1.442620 0.645777 1.149771
v 1.442620 0.645777 1.256643
v 1.492310 0.645777 1.259170
v 1.549598 0.645777 1.255313
v 1.606320 0.645777 1.223957
v 1.603650 0.645777 1.182739
v 1.555570 0.645777 1.152267
v 1.500822 0.645777 1.147379
vt 0.034703 0.492665
vt 0.034703 0.216990
vt 0.286916 0.216990
vt 0.286916 0.492665
vt 0.340566 0.216990
vt 0.340566 0.492665
vt 0.592779 0.492665
vt 0.592779 0.216990
vt 0.702552 0.788646
vt 0.702552 0.512971
vt 0.978227 0.512971
vt 0.978227 0.788646
vt 0.615890 0.514658
vt 0.592974 0.514658
vt 0.407407 0.514658
vt 0.407407 0.790333
vt 0.567614 0.790333
vt 0.576369 0.646896
vt 0.583380 0.790333
vt 0.592151 0.790333
vt 0.604323 0.640760
vt 0.615462 0.790333
vt 0.683082 0.790333
vt 0.683082 0.514658
vt 0.022210 0.527539
vt 0.037652 0.513756
vt 0.369643 0.513756
vt 0.385098 0.527539
vt 0.385062 0.775649
vt 0.369605 0.789431
vt 0.037659 0.789431
vt 0.022334 0.775649
vt 0.024245 0.714790
vt 0.034383 0.715260
vt 0.044262 0.714300
vt 0.053563 0.708318
vt 0.054032 0.700227
vt 0.042987 0.694071
vt 0.033073 0.693314
vt 0.025849 0.693810
vt 0.025488 0.685916
vt 0.030606 0.685098
vt 0.037033 0.681451
vt 0.037227 0.676824
vt 0.029319 0.672467
vt 0.022621 0.671726
vt 0.625157 0.478883
vt 0.636888 0.492665
vt 0.889101 0.492665
vt 0.900832 0.478883
vt 0.900832 0.230773
vt 0.889101 0.216990
vt 0.636888 0.216990
vt 0.625157 0.230773
vt 0.625157 0.397785
vt 0.625157 0.418410
vt 0.022972 0.216990
vt 0.022972 0.492665
vt 0.298647 0.216990
vt 0.298647 0.492665
vt 0.328835 0.492665
vt 0.328835 0.216990
vt 0.604510 0.492665
vt 0.604510 0.216990
vt 0.025131 0.685916
vt 0.018924 0.679606
vt 0.023861 0.671726
vt 0.028996 0.672467
vt 0.034539 0.676824
vt 0.034547 0.681451
vt 0.029973 0.685098
vt 0.025589 0.714790
vt 0.018587 0.704765
vt 0.026579 0.693810
vt 0.034171 0.693314
vt 0.042856 0.694071
vt 0.051117 0.700227
vt 0.050655 0.708318
vt 0.043814 0.714300
vt 0.035411 0.715260
vt 0.019757 0.679606
vt 0.019195 0.704765
vn 0.000000 0.000000 1.000000
vn 0.000000 0.000000 1.000000
vn 0.000000 0.000000 1.000000
vn 0.000000 0.000000 1.000000
vn 0.000000 0.000000 -1.000000
vn 0.000000 0.000000 -1.000000
vn 0.000000 0.000000 -1.000000
vn 0.000000 0.000000 -1.000000
vn 1.000000 0.000000 0.000000
vn 1.000000 0.000000 0.000000
vn 1.000000 0.000000 0.000000
vn 1.000000 0.000000 0.000000
vn -1.000000 0.000000 0.000000
vn -1.000000 0.000000 0.000000
vn -1.000000 0.000000 0.000000
vn -1.000000 0.000000 0.000000
vn -1.000000 0.000000 0.000000
vn -1.000000 0.000000 0.000000
vn -1.000000 0.000000 0.000000
vn -1.000000 0.000000 0.000000
vn -1.000000 0.000000 0.000000
vn -1.000000 0.000000 0.000000
vn -1.000000 0.000000 0.000000
vn -1.000000 0.000000 0.000000
vn 0.000000 1.000000 0.000000
vn 0.000000 1.000000 0.000000
vn 0.000000 1.000000 0.000000
vn 0.000000 1.000000 0.000000
vn 0.000000 1.000000 0.000000
vn 0.000000 1.000000 0.000000
vn 0.000000 1.000000 0.000000
vn 0.000000 1.000000 0.000000
vn 0.000000 1.000000 0.000000
vn 0.000000 1.000000 0.000000
vn 0.000000 1.000000 0.000000
vn 0.000000 1.000000 0.000000
vn 0.000000 1.000000 0.000000
vn 0.000000 1.000000 0.000000
vn 0.000000 1.000000 0.000000
vn 0.000000 1.000000 0.000000
vn 0.000000 1.000000 0.000000
vn 0.000000 1.000000 0.000000
vn 0.000000 1.000000 0.000000
vn 0.000000 1.000000 0.000000
vn 0.000000 1.000000 0.000000
vn 0.000000 1.000000 0.000000
vn 0.000000 -1.000000 0.000000
vn 0.000000 -1.000000 0.000000
vn 0.000000 -1.000000 0.000000
vn 0.000000 -1.000000 0.000000
vn 0.000000 -1.000000 0.000000
vn 0.000000 -1.000000 0.000000
vn 0.000000 -1.000000 0.000000
vn 0.000000 -1.000000 0.000000
vn 0.000000 -1.000000 0.000000
vn 0.000000 -1.000000 0.000000
vn -0.665551 0.000000 0.746353
vn -0.665551 0.000000 0.746353
vn -0.665551 0.000000 0.746353
vn -0.665551 0.000000 0.746353
vn 0.665551 0.000000 0.746353
vn 0.665551 0.000000 0.746353
vn 0.665551 0.000000 0.746353
vn 0.665551 0.000000 0.746353
vn -0.665551 0.000000 -0.746353
vn -0.665551 0.000000 -0.746353
vn -0.665551 0.000000 -0.746353
vn -0.665551 0.000000 -0.746353
vn 0.665551 0.000000 -0.746353
vn 0.665551 0.000000 -0.746353
vn 0.665551 0.000000 -0.746353
vn 0.665551 0.000000 -0.746353
vn -0.610956 0.791665 0.000000
vn -0.610956 0.791665 0.000000
vn -0.610956 0.791665 0.000000
vn -0.610956 0.791665 0.000000
vn -0.610956 0.791665 0.000000
vn -0.610956 0.791665 0.000000
vn -0.610956 0.791665 0.000000
vn -0.307125 0.951669 0.000000
vn -0.307125 0.951669 0.000000
vn -0.307125 0.951669 0.000000
vn -0.307125 0.951669 0.000000
vn -0.307125 0.951669 0.000000
vn -0.307125 0.951669 0.000000
vn -0.307125 0.951669 0.000000
vn -0.307125 0.951669 0.000000
vn -0.307125 0.951669 0.000000
vn 0.707081 0.235694 0.666697
vn 0.707081 0.235694 0.666697
vn 0.707081 0.235694 0.666697
vn 0.707081 0.235694 0.666697
vn 0.771226 0.257075 -0.582343
vn 0.771226 0.257075 -0.582343
vn 0.771226 0.257075 -0.582343
vn 0.771226 0.257075 -0.582343
vn -0.103863 -0.034621 -0.993989
vn -0.103863 -0.034621 -0.993989
vn -0.103863 -0.034621 -0.993989
vn -0.103863 -0.034621 -0.993989
vn -0.469168 -0.156390 -0.869151
vn -0.469168 -0.156390 -0.869151
vn -0.469168 -0.156390 -0.869151
vn -0.469168 -0.156390 -0.869151
vn -0.948155 -0.316048 0.033410
vn -0.948155 -0.316048 0.033410
vn -0.948155 -0.316048 0.033410
vn -0.948155 -0.316048 0.033410
vn -0.416646 -0.138881 0.898398
vn -0.416646 -0.138881 0.898398
vn -0.416646 -0.138881 0.898398
vn -0.416646 -0.138881 0.898398
vn -0.113879 -0.037959 0.992769
vn -0.113879 -0.037959 0.992769
vn -0.113879 -0.037959 0.992769
vn -0.113879 -0.037959 0.992769
vn 0.818106 0.272704 0.506295
vn 0.818106 0.272704 0.506295
vn 0.818106 0.272704 0.506295
vn 0.818106 0.272704 0.506295
vn 0.835704 0.278569 -0.473284
vn 0.835704 0.278569 -0.473284
vn 0.835704 0.278569 -0.473284
vn 0.835704 0.278569 -0.473284
vn 0.050782 0.016927 -0.998566
vn 0.050782 0.016927 -0.998566
vn 0.050782 0.016927 -0.998566
vn 0.050782 0.016927 -0.998566
vn -0.067141 -0.022380 -0.997492
vn -0.067141 -0.022380 -0.997492
vn -0.067141 -0.022380 -0.997492
vn -0.067141 -0.022380 -0.997492
vn -0.477637 -0.159211 -0.864011
vn -0.477637 -0.159211 -0.864011
vn -0.477637 -0.159211 -0.864011
vn -0.477637 -0.159211 -0.864011
vn -0.946898 -0.315631 0.061332
vn -0.946898 -0.315631 0.061332
vn -0.946898 -0.315631 0.061332
vn -0.946898 -0.315631 0.061332
vn -0.526995 -0.175666 0.831515
vn -0.526995 -0.175666 0.831515
vn -0.526995 -0.175666 0.831515
vn -0.526995 -0.175666 0.831515
vn -0.088893 -0.029631 0.995600
vn -0.088893 -0.029631 0.995600
vn -0.088893 -0.029631 0.995600
vn -0.088893 -0.029631 0.995600
vn 0.041068 0.013690 0.999063
vn 0.041068 0.013690 0.999063
vn 0.041068 0.013690 0.999063
vn 0.041068 0.013690 0.999063
s off
g MesaNew_pCube1
usemtl MesaNew_lambert2SG
f 40/61/121 38/62/122 42/63/123 44/64/124
f 48/65/125 46/66/126 49/67/127 52/68/128
f 43/69/129 41/70/130 51/71/131 50/72/132
f 55/73/133 56/74/134 37/75/135 39/76/136 63/77/137 69/78/138 64/79/139 53/80/140 70/81/141 54/82/142 45/83/143 47/84/144
f 39/85/145 40/86/146 44/87/147 43/88/148 50/89/149 49/90/150 46/91/151 45/92/152 54/93/153 57/94/154 58/95/155 59/96/156 60/97/157 61/98/158 62/99/159 53/100/160 64/101/161 65/102/162 66/103/163 67/104/164 68/105/165 63/106/166
f 47/107/167 48/108/168 52/109/169 51/110/170 41/111/171 42/112/172 38/113/173 37/114/174 56/115/175 55/116/176
f 37/117/177 38/62/178 40/61/179 39/118/180
f 42/63/181 41/119/182 43/120/183 44/64/184
f 45/121/185 46/66/186 48/65/187 47/122/188
f 49/67/189 50/123/190 51/124/191 52/68/192
f 72/125/193 71/126/194 73/127/195 74/128/196 75/129/197 76/130/198 77/131/199
f 79/132/200 78/133/201 80/134/202 81/135/203 82/136/204 83/137/205 84/138/206 85/139/207 86/140/208
f 64/101/209 69/141/210 71/126/211 72/125/212
f 69/141/213 63/106/214 73/127/215 71/126/216
f 63/106/217 68/105/218 74/128/219 73/127/220
f 68/105/221 67/104/222 75/129/223 74/128/224
f 67/104/225 66/103/226 76/130/227 75/129/228
f 66/103/229 65/102/230 77/131/231 76/130/232
f 65/102/233 64/101/234 72/125/235 77/131/236
f 54/93/237 70/142/238 78/133/239 79/132/240
f 70/142/241 53/100/242 80/134/243 78/133/244
f 53/100/245 62/99/246 81/135/247 80/134/248
f 62/99/249 61/98/250 82/136/251 81/135/252
f 61/98/253 60/97/254 83/137/255 82/136/256
f 60/97/257 59/96/258 84/138/259 83/137/260
f 59/96/261 58/95/262 85/139/263 84/138/264
f 58/95/265 57/94/266 86/140/267 85/139/268
f 57/94/269 54/93/270 79/132/271 86/140/272
g default
v 1.448369 0.204235 1.100375
v 1.732481 0.204235 1.100375
v 1.495468 0.506273 1.100375
v 1.736030 0.506273 1.100375
v 1.495468 0.506273 0.859813
v 1.736030 0.506273 0.859813
v 1.448369 0.204235 0.859813
v 1.732481 0.204235 0.859813
v 1.470113 0.343678 1.100375
v 1.470113 0.343678 0.859813
v 1.723543 0.343678 0.859813
v 1.723543 0.343678 1.100375
vt 0.375000 0.000000
vt 0.625000 0.000000
vt 0.625000 0.115418
vt 0.375000 0.115418
vt 0.375000 0.250000
vt 0.625000 0.250000
vt 0.625000 0.500000
vt 0.375000 0.500000
vt 0.375000 0.634582
vt 0.625000 0.634582
vt 0.625000 0.750000
vt 0.375000 0.750000
vt 0.625000 1.000000
vt 0.375000 1.000000
vt 0.875000 0.000000
vt 0.875000 0.115418
vt 0.125000 0.000000
vt 0.125000 0.115418
vt 0.125000 0.250000
vt 0.875000 0.250000
vn 0.000000 0.000000 1.000000
vn 0.000000 0.000000 1.000000
vn 0.000000 0.000000 1.000000
vn 0.000000 0.000000 1.000000
vn 0.000000 1.000000 0.000000
vn 0.000000 1.000000 0.000000
vn 0.000000 1.000000 0.000000
vn 0.000000 1.000000 0.000000
vn 0.000000 0.000000 -1.000000
vn 0.000000 0.000000 -1.000000
vn 0.000000 0.000000 -1.000000
vn 0.000000 0.000000 -1.000000
vn 0.000000 -1.000000 0.000000
vn 0.000000 -1.000000 0.000000
vn 0.000000 -1.000000 0.000000
vn 0.000000 -1.000000 0.000000
vn 0.997952 0.063961 0.000000
vn 0.997952 0.063961 0.000000
vn 0.999931 -0.011752 0.000000
vn 0.999931 -0.011752 0.000000
vn -0.988059 0.154077 0.000000
vn -0.988059 0.154077 0.000000
vn -0.988059 0.154077 0.000000
vn -0.988059 0.154077 0.000000
vn -0.988059 0.154077 0.000000
vn -0.988059 0.154077 0.000000
vn -0.988059 0.154076 0.000000
vn -0.988059 0.154076 0.000000
vn 0.000000 0.000000 -1.000000
vn 0.000000 0.000000 -1.000000
vn 0.000000 0.000000 -1.000000
vn 0.000000 0.000000 -1.000000
vn 0.999931 -0.011752 0.000000
vn 0.999931 -0.011752 0.000000
vn 0.997064 -0.076573 0.000000
vn 0.997064 -0.076573 0.000000
vn 0.000000 0.000000 1.000000
vn 0.000000 0.000000 1.000000
vn 0.000000 0.000000 1.000000
vn 0.000000 0.000000 1.000000
s off
g MesaNew_pCube4
usemtl MesaNew_lambert3SG
f 87/143/273 88/144/274 98/145/275 95/146/276
f 89/147/277 90/148/278 92/149/279 91/150/280
f 96/151/281 97/152/282 94/153/283 93/154/284
f 93/154/285 94/153/286 88/155/287 87/156/288
f 88/144/289 94/157/290 97/158/291 98/145/292
f 93/159/293 87/143/294 95/146/295 96/160/296
f 96/160/297 95/146/298 89/147/299 91/161/300
f 91/150/301 92/149/302 97/152/303 96/151/304
f 98/145/305 97/158/306 92/162/307 90/148/308
f 95/146/309 98/145/310 90/148/311 89/147/312
