# This file uses centimeters as units for non-parametric coordinates.

mtllib Ala1.mtl
g default
v -0.269471 0.273204 -0.231027
v -0.249800 0.273204 -0.252892
v -1.726113 1.720047 -1.541478
v -1.659910 1.720080 -1.481919
v -1.688355 1.736214 -1.507510
v -1.717177 1.736199 -1.533439
v -1.706442 1.720047 -1.563344
v -1.697506 1.736199 -1.555304
v -1.668684 1.736214 -1.529375
v -1.640239 1.720080 -1.503785
v -1.542702 0.899944 -1.376474
v -1.494843 0.824099 -1.333419
v -1.398497 0.761736 -1.246742
v -1.523031 0.899944 -1.398340
v -1.378826 0.761736 -1.268608
v -1.475172 0.824099 -1.355284
v -1.104622 1.239836 -0.982361
v -0.588475 0.695715 -0.518016
v -0.823937 0.972536 -0.729846
v -1.084951 1.239836 -1.004226
v -0.804266 0.972536 -0.751711
v -0.568805 0.695715 -0.539881
vt 0.986676 0.000000
vt 1.000000 0.000000
vt 0.783918 0.288796
vt 0.770594 0.288796
vt 0.420975 0.660715
vt 0.434299 0.660715
vt 0.058168 0.988972
vt 0.044844 0.988972
vt 0.000000 0.988950
vt 0.013324 0.988950
vt 0.137560 0.428391
vt 0.124236 0.428391
vt 0.221915 0.333923
vt 0.235239 0.333923
vt 0.006053 0.999990
vt 0.019377 0.999990
vt 0.025576 1.000000
vt 0.038900 1.000000
vt 0.156654 0.376549
vt 0.169978 0.376549
vt 0.611101 0.478010
vt 0.624425 0.478010
vn 0.521600 0.712556 0.469251
vn 0.521600 0.712556 0.469251
vn 0.508509 0.729477 0.457473
vn 0.508509 0.729477 0.457473
vn 0.411571 0.832772 0.370269
vn 0.411571 0.832772 0.370269
vn 0.397251 0.845263 0.357383
vn 0.397251 0.845263 0.357382
vn -0.715772 -0.270207 -0.643940
vn -0.715772 -0.270207 -0.643940
vn -0.702298 -0.328005 -0.631815
vn -0.702298 -0.328005 -0.631815
vn -0.235659 -0.948429 -0.212006
vn -0.235659 -0.948429 -0.212006
vn -0.227659 -0.951957 -0.204813
vn -0.227659 -0.951957 -0.204813
vn -0.596408 0.597016 -0.536535
vn -0.596402 0.597019 -0.536538
vn -0.000279 1.000000 -0.000255
vn -0.000279 1.000000 -0.000251
vn -0.000279 1.000000 -0.000252
vn -0.000279 1.000000 -0.000248
vn 0.288850 0.921432 0.259863
vn 0.288850 0.921433 0.259862
vn -0.322362 -0.901099 -0.290007
vn -0.322362 -0.901099 -0.290006
vn -0.566796 -0.647105 -0.509900
vn -0.566794 -0.647105 -0.509902
vn 0.458584 0.787080 0.412559
vn 0.458584 0.787080 0.412559
vn -0.668816 0.000000 0.743428
vn -0.668816 0.000000 0.743428
vn -0.668816 -0.000000 0.743428
vn -0.668816 0.000000 0.743428
vn -0.668816 -0.000000 0.743428
vn -0.668817 -0.000000 0.743428
vn -0.668817 -0.000000 0.743427
vn -0.668816 0.000000 0.743428
vn -0.668812 0.000001 0.743432
vn -0.668816 -0.000005 0.743428
vn -0.668824 0.000000 0.743421
vn 0.668816 -0.000000 -0.743428
vn 0.668816 -0.000001 -0.743428
vn 0.668816 -0.000000 -0.743428
vn 0.668816 0.000000 -0.743428
vn 0.668816 -0.000000 -0.743428
vn 0.668816 0.000000 -0.743428
vn 0.668816 0.000000 -0.743428
vn 0.668817 0.000000 -0.743427
vn 0.668823 0.000004 -0.743421
vn 0.668814 -0.000005 -0.743430
vn 0.668812 -0.000024 -0.743431
s 1
g pCube1
usemtl lambert2SG
f 1/1/1 2/2/2 18/4/3
f 18/4/3 2/2/2 22/3/4
f 17/5/5 20/6/6 4/8/7
f 4/8/7 20/6/6 10/7/8
s 3
f 3/9/9 7/10/10 11/12/11
f 11/12/11 7/10/10 14/11/12
s 4
f 13/13/13 15/14/14 1/1/15
f 1/1/15 15/14/14 2/2/16
s 3
f 3/9/9 6/15/17 7/10/10
f 7/10/10 6/15/17 8/16/18
s 5
f 6/15/19 5/17/20 8/16/21
f 8/16/21 5/17/20 9/18/22
s 1
f 5/17/23 4/8/7 9/18/24
f 9/18/24 4/8/7 10/7/8
s 4
f 13/13/13 12/19/25 15/14/14
f 15/14/14 12/19/25 16/20/26
s 3
f 12/19/27 11/12/11 16/20/28
f 16/20/28 11/12/11 14/11/12
s 1
f 17/5/5 19/21/29 20/6/6
f 20/6/6 19/21/29 21/22/30
f 19/21/29 18/4/3 21/22/30
f 21/22/30 18/4/3 22/3/4
s 6
f 1/1/31 18/4/32 13/13/33
f 18/4/32 19/21/34 13/13/33
f 19/21/34 17/5/35 13/13/33
f 13/13/33 17/5/35 12/19/36
f 12/19/36 17/5/35 11/12/37
f 11/12/37 17/5/35 3/9/38
f 3/9/38 17/5/35 6/15/39
f 17/5/35 4/8/40 6/15/39
f 4/8/40 5/17/41 6/15/39
s 7
f 2/2/42 15/14/43 22/3/44
f 22/3/44 15/14/43 21/22/45
f 21/22/45 15/14/43 20/6/46
f 15/14/43 16/20/47 20/6/46
f 16/20/47 14/11/48 20/6/46
f 14/11/48 7/10/49 20/6/46
f 7/10/49 8/16/50 20/6/46
f 20/6/46 8/16/50 10/7/51
f 8/16/50 9/18/52 10/7/51
