# This file uses centimeters as units for non-parametric coordinates.

mtllib Ala2.mtl
g default
v 0.249331 0.273205 -0.204332
v 0.269002 0.273205 -0.182467
v 1.705962 1.720058 -1.514785
v 1.639760 1.720090 -1.455226
v 1.668205 1.736225 -1.480816
v 1.697026 1.736210 -1.506745
v 1.725634 1.720058 -1.492919
v 1.716697 1.736210 -1.484880
v 1.687876 1.736225 -1.458951
v 1.659431 1.720090 -1.433360
v 1.522555 0.899954 -1.349783
v 1.474697 0.824108 -1.306727
v 1.378351 0.761745 -1.220051
v 1.542226 0.899954 -1.327918
v 1.398022 0.761745 -1.198185
v 1.494368 0.824109 -1.284862
v 1.084475 1.239843 -0.955666
v 0.568333 0.695719 -0.491321
v 0.803793 0.972542 -0.703151
v 1.104146 1.239843 -0.933801
v 0.823464 0.972542 -0.681286
v 0.588004 0.695719 -0.469456
vt 0.986676 0.000000
vt 1.000000 0.000000
vt 0.783918 0.288796
vt 0.770594 0.288796
vt 0.420975 0.660715
vt 0.434299 0.660715
vt 0.058168 0.988972
vt 0.044844 0.988972
vt 0.000000 0.988950
vt 0.013324 0.988950
vt 0.137560 0.428391
vt 0.124236 0.428391
vt 0.221915 0.333923
vt 0.235239 0.333923
vt 0.006053 0.999990
vt 0.019377 0.999990
vt 0.025576 1.000000
vt 0.038900 1.000000
vt 0.156654 0.376549
vt 0.169978 0.376549
vt 0.611101 0.478010
vt 0.624425 0.478010
vn -0.521601 0.712553 0.469256
vn -0.521601 0.712553 0.469256
vn -0.508511 0.729473 0.457477
vn -0.508512 0.729473 0.457477
vn -0.411578 0.832769 0.370270
vn -0.411578 0.832769 0.370270
vn -0.397255 0.845259 0.357387
vn -0.397255 0.845259 0.357387
vn 0.715768 -0.270201 -0.643947
vn 0.715769 -0.270201 -0.643946
vn 0.702302 -0.327997 -0.631815
vn 0.702302 -0.327997 -0.631815
vn 0.235661 -0.948428 -0.212011
vn 0.235661 -0.948428 -0.212012
vn 0.227662 -0.951956 -0.204814
vn 0.227662 -0.951956 -0.204815
vn 0.596393 0.597016 -0.536552
vn 0.596399 0.597019 -0.536541
vn 0.000274 1.000000 -0.000248
vn 0.000274 1.000000 -0.000248
vn 0.000274 1.000000 -0.000248
vn 0.000274 1.000000 -0.000248
vn -0.288854 0.921431 0.259861
vn -0.288855 0.921431 0.259863
vn 0.322364 -0.901097 -0.290011
vn 0.322364 -0.901097 -0.290011
vn 0.566787 -0.647103 -0.509912
vn 0.566787 -0.647103 -0.509911
vn -0.458583 0.787078 0.412565
vn -0.458583 0.787078 0.412565
vn -0.668819 0.000000 -0.743425
vn -0.668819 0.000000 -0.743425
vn -0.668819 0.000000 -0.743425
vn -0.668819 0.000000 -0.743425
vn -0.668819 -0.000000 -0.743425
vn -0.668819 0.000000 -0.743426
vn -0.668819 -0.000000 -0.743425
vn -0.668819 0.000000 -0.743425
vn -0.668822 0.000007 -0.743422
vn -0.668813 -0.000005 -0.743430
vn -0.668824 0.000024 -0.743421
vn 0.668819 -0.000000 0.743425
vn 0.668819 0.000000 0.743425
vn 0.668819 -0.000000 0.743425
vn 0.668819 0.000000 0.743425
vn 0.668819 -0.000000 0.743425
vn 0.668819 0.000001 0.743425
vn 0.668819 -0.000000 0.743425
vn 0.668819 -0.000000 0.743425
vn 0.668815 0.000006 0.743429
vn 0.668821 0.000005 0.743423
vn 0.668819 0.000000 0.743426
s 1
g pCube7
usemtl lambert2SG
f 1/1/1 2/2/2 18/4/3
f 18/4/3 2/2/2 22/3/4
f 17/5/5 20/6/6 4/8/7
f 4/8/7 20/6/6 10/7/8
s 3
f 3/9/9 7/10/10 11/12/11
f 11/12/11 7/10/10 14/11/12
s 4
f 13/13/13 15/14/14 1/1/15
f 1/1/15 15/14/14 2/2/16
s 3
f 3/9/9 6/15/17 7/10/10
f 7/10/10 6/15/17 8/16/18
s 5
f 6/15/19 5/17/20 8/16/21
f 8/16/21 5/17/20 9/18/22
s 1
f 5/17/23 4/8/7 9/18/24
f 9/18/24 4/8/7 10/7/8
s 4
f 13/13/13 12/19/25 15/14/14
f 15/14/14 12/19/25 16/20/26
s 3
f 12/19/27 11/12/11 16/20/28
f 16/20/28 11/12/11 14/11/12
s 1
f 17/5/5 19/21/29 20/6/6
f 20/6/6 19/21/29 21/22/30
f 19/21/29 18/4/3 21/22/30
f 21/22/30 18/4/3 22/3/4
s 6
f 1/1/31 18/4/32 13/13/33
f 18/4/32 19/21/34 13/13/33
f 19/21/34 17/5/35 13/13/33
f 13/13/33 17/5/35 12/19/36
f 12/19/36 17/5/35 11/12/37
f 11/12/37 17/5/35 3/9/38
f 3/9/38 17/5/35 6/15/39
f 17/5/35 4/8/40 6/15/39
f 4/8/40 5/17/41 6/15/39
s 7
f 2/2/42 15/14/43 22/3/44
f 22/3/44 15/14/43 21/22/45
f 21/22/45 15/14/43 20/6/46
f 15/14/43 16/20/47 20/6/46
f 16/20/47 14/11/48 20/6/46
f 14/11/48 7/10/49 20/6/46
f 7/10/49 8/16/50 20/6/46
f 20/6/46 8/16/50 10/7/51
f 8/16/50 9/18/52 10/7/51
