# This file uses centimeters as units for non-parametric coordinates.

mtllib Ala3.mtl
g default
v -0.592602 -0.779886 -0.235796
v -0.586968 -0.778802 -0.248851
v -0.311641 -0.300957 -0.074775
v -0.306007 -0.299873 -0.087830
v -0.844162 -0.362796 -0.309741
v -0.493151 -0.274877 -0.150948
v -0.611674 -0.273777 -0.202010
v -0.730777 -0.303609 -0.255891
v -0.838527 -0.361712 -0.322796
v -0.725143 -0.302525 -0.268946
v -0.606039 -0.272693 -0.215065
v -0.487517 -0.273794 -0.164003
v -0.913588 -0.409477 -0.343580
v -0.946970 -0.451389 -0.361467
v -0.952057 -0.504511 -0.368073
v -0.926576 -0.545101 -0.360446
v -0.907954 -0.408393 -0.356635
v -0.920942 -0.544017 -0.373501
v -0.946423 -0.503427 -0.381128
v -0.941335 -0.450305 -0.374522
v -0.758601 -0.702208 -0.316568
v -0.810015 -0.664811 -0.335654
v -0.855717 -0.619384 -0.351607
v -0.702369 -0.730924 -0.294683
v -0.816257 -0.665426 -0.322822
v -0.764872 -0.702870 -0.303753
v -0.708662 -0.731632 -0.281881
v -0.861921 -0.619952 -0.338755
v -0.472444 -0.541912 -0.164180
v -0.466760 -0.540743 -0.177207
vt 0.742377 0.469199
vt 0.751175 0.471503
vt 1.000000 0.946410
vt 0.991278 0.944273
vt 0.719047 0.997830
vt 0.710325 0.995693
vt 0.167008 0.822350
vt 0.175729 0.824487
vt 0.068266 0.732449
vt 0.059545 0.730312
vt 0.039441 0.462910
vt 0.048162 0.465047
vt 0.149122 0.316451
vt 0.139518 0.315331
vt 0.342512 0.939045
vt 0.351234 0.941182
vt 0.526868 0.997863
vt 0.535590 1.000000
vt -0.000000 0.542939
vt 0.008721 0.545076
vt 0.007874 0.647676
vt 0.016596 0.649813
vt 0.376744 0.095139
vt 0.386484 0.096534
vt 0.565110 0.002137
vt 0.556389 0.000000
vt 0.219862 0.226886
vt 0.210200 0.225673
vt 0.299444 0.153152
vt 0.289738 0.151847
vn 0.779696 -0.554718 0.290453
vn 0.779420 -0.555181 0.290307
vn 0.750025 -0.602119 0.273708
vn 0.750019 -0.602120 0.273719
vn 0.091084 0.988419 0.121371
vn 0.091084 0.988419 0.121371
vn 0.046517 0.993638 0.102570
vn 0.046517 0.993638 0.102570
vn -0.452870 0.883172 -0.122133
vn -0.452870 0.883172 -0.122134
vn -0.585500 0.788758 -0.187219
vn -0.585500 0.788758 -0.187219
vn -0.692629 -0.630002 -0.351231
vn -0.692409 -0.630035 -0.351604
vn -0.638776 -0.690801 -0.338762
vn -0.636992 -0.692747 -0.338147
vn -0.330618 0.941556 -0.064528
vn -0.330618 0.941556 -0.064529
vn -0.131162 0.991029 0.025666
vn -0.131163 0.991029 0.025666
vn -0.753785 -0.542789 -0.370389
vn -0.753785 -0.542789 -0.370390
vn -0.913747 0.135151 -0.383146
vn -0.913748 0.135150 -0.383145
vn -0.913747 0.135151 -0.383146
vn -0.913748 0.135149 -0.383145
vn -0.703322 0.666116 -0.248249
vn -0.703321 0.666117 -0.248249
vn -0.328934 -0.920126 -0.212533
vn -0.326807 -0.921075 -0.211703
vn -0.303411 -0.929959 -0.207651
vn -0.303184 -0.929941 -0.208061
vn -0.550078 -0.777613 -0.304519
vn -0.553907 -0.773977 -0.306834
vn -0.431273 -0.865310 -0.255425
vn -0.435532 -0.862429 -0.257931
vn 0.395116 0.076003 -0.915482
vn 0.395116 0.076003 -0.915482
vn 0.395116 0.076003 -0.915482
vn 0.395116 0.076003 -0.915482
vn 0.395116 0.076003 -0.915482
vn 0.395116 0.076003 -0.915482
vn 0.395116 0.076003 -0.915482
vn 0.395116 0.076003 -0.915482
vn 0.395116 0.076003 -0.915482
vn 0.395116 0.076003 -0.915482
vn 0.395116 0.076003 -0.915482
vn 0.395116 0.076003 -0.915482
vn 0.395115 0.076004 -0.915482
vn 0.395114 0.076003 -0.915483
vn 0.395119 0.076001 -0.915481
vn -0.395116 -0.076003 0.915482
vn -0.395116 -0.076003 0.915482
vn -0.395116 -0.076003 0.915482
vn -0.395116 -0.076003 0.915482
vn -0.395116 -0.076003 0.915482
vn -0.395116 -0.076003 0.915482
vn -0.395116 -0.076003 0.915482
vn -0.395115 -0.076003 0.915482
vn -0.395116 -0.076003 0.915482
vn -0.395116 -0.076003 0.915482
vn -0.395115 -0.076003 0.915482
vn -0.395116 -0.076003 0.915482
vn -0.395117 -0.076003 0.915482
vn -0.395115 -0.076003 0.915482
vn -0.395116 -0.076003 0.915482
vn 0.808952 -0.501010 0.307547
vn 0.808946 -0.501011 0.307561
s 1
g pCube3
usemtl lambert3SG
f 29/1/1 30/2/2 3/4/3
f 3/4/3 30/2/2 4/3/4
s 2
f 3/4/5 4/3/6 6/6/7
f 6/6/7 4/3/6 12/5/8
f 5/7/9 9/8/10 13/10/11
f 13/10/11 9/8/10 17/9/12
s 4
f 16/11/13 18/12/14 28/14/15
f 28/14/15 18/12/14 23/13/16
s 2
f 5/7/9 8/15/17 9/8/10
f 9/8/10 8/15/17 10/16/18
f 8/15/17 7/17/19 10/16/18
f 10/16/18 7/17/19 11/18/20
f 7/17/19 6/6/7 11/18/20
f 11/18/20 6/6/7 12/5/8
s 4
f 16/11/13 15/19/21 18/12/14
f 18/12/14 15/19/21 19/20/22
s 5
f 15/19/23 14/21/24 19/20/25
f 19/20/25 14/21/24 20/22/26
s 2
f 14/21/27 13/10/11 20/22/28
f 20/22/28 13/10/11 17/9/12
s 4
f 27/23/29 24/24/30 1/26/31
f 1/26/31 24/24/30 2/25/32
f 23/13/16 22/27/33 28/14/15
f 28/14/15 22/27/33 25/28/34
f 22/27/33 21/29/35 25/28/34
f 25/28/34 21/29/35 26/30/36
f 21/29/35 24/24/30 26/30/36
f 26/30/36 24/24/30 27/23/29
s 7
f 4/3/37 30/2/38 12/5/39
f 2/25/40 24/24/41 30/2/38
f 12/5/39 30/2/38 11/18/42
f 30/2/38 24/24/41 11/18/42
f 11/18/42 24/24/41 10/16/43
f 24/24/41 21/29/44 10/16/43
f 21/29/44 22/27/45 10/16/43
f 10/16/43 22/27/45 9/8/46
f 22/27/45 23/13/47 9/8/46
f 23/13/47 18/12/48 9/8/46
f 9/8/46 18/12/48 17/9/49
f 18/12/48 19/20/50 17/9/49
f 19/20/50 20/22/51 17/9/49
s 9
f 3/4/52 6/6/53 29/1/54
f 1/26/55 29/1/54 27/23/56
f 6/6/53 7/17/57 29/1/54
f 29/1/54 7/17/57 27/23/56
f 7/17/57 8/15/58 27/23/56
f 27/23/56 8/15/58 26/30/59
f 26/30/59 8/15/58 25/28/60
f 8/15/58 5/7/61 25/28/60
f 25/28/60 5/7/61 28/14/62
f 28/14/62 5/7/61 16/11/63
f 5/7/61 13/10/64 16/11/63
f 13/10/64 14/21/65 16/11/63
f 14/21/65 15/19/66 16/11/63
s 1
f 1/26/67 2/25/68 29/1/1
f 29/1/1 2/25/68 30/2/2
