# This file uses centimeters as units for non-parametric coordinates.

mtllib Piso4.mtl
g default
v -2.512140 3.333115 0.761337
v -3.613001 3.333115 0.761337
v -3.613001 3.116510 0.761337
v -2.512140 3.116510 0.761337
v -2.512140 3.333115 3.010156
v -2.512140 3.116510 3.010156
v -3.613001 3.116510 3.010156
v -3.613001 3.116510 3.667385
v -3.613001 3.333115 3.667385
v -3.613001 3.333115 3.010156
v 3.613001 3.116510 3.667385
v 3.613001 3.116510 -3.667385
v 3.613001 3.333115 -3.667385
v 3.613001 3.333115 3.667385
v -3.613001 3.116510 -3.667385
v -3.613001 3.333115 -3.667385
vt 0.005640 0.221408
vt 0.246016 0.221408
vt 0.246016 0.014416
vt 0.005640 0.014416
vt 0.260288 0.296502
vt 0.010288 0.296502
vt 0.010288 0.503494
vt 0.260288 0.503494
vt 0.473002 0.000000
vt 0.495403 0.000000
vt 0.495403 0.250000
vt 0.473002 0.250000
vt 0.609755 0.014416
vt 0.369378 0.014416
vt 0.369378 0.221408
vt 0.609755 0.221408
vt 0.745403 0.000000
vt 0.995403 0.000000
vt 0.995403 0.250000
vt 0.745403 0.250000
vt 0.290559 0.999106
vt 0.999106 0.999106
vt 0.999106 0.290559
vt 0.290559 0.290559
vt 0.290559 0.354048
vt 0.398504 0.354048
vt 0.398504 0.571286
vt 0.290559 0.571286
vt 0.290980 0.289235
vt 1.002174 0.289235
vt 1.002174 1.000429
vt 0.290980 1.000429
vt 0.290980 0.571011
vt 0.399329 0.571011
vt 0.399329 0.352962
vt 0.290980 0.352962
vt -0.001913 -0.000805
vt 0.248087 -0.000805
vt 0.248087 0.249195
vt -0.001913 0.249195
vt 0.245403 0.000000
vt 0.396352 0.000000
vt 0.396352 0.250000
vt 0.245403 0.250000
vn 0.000000 0.000000 1.000000
vn 0.000000 0.000000 1.000000
vn 0.000000 0.000000 1.000000
vn 0.000000 0.000000 1.000000
vn -1.000000 0.000000 0.000000
vn -1.000000 0.000000 0.000000
vn -1.000000 0.000000 0.000000
vn -1.000000 0.000000 0.000000
vn -1.000000 0.000000 0.000000
vn -1.000000 0.000000 0.000000
vn -1.000000 0.000000 0.000000
vn -1.000000 0.000000 0.000000
vn 0.000000 0.000000 -1.000000
vn 0.000000 0.000000 -1.000000
vn 0.000000 0.000000 -1.000000
vn 0.000000 0.000000 -1.000000
vn 1.000000 0.000000 0.000000
vn 1.000000 0.000000 0.000000
vn 1.000000 0.000000 0.000000
vn 1.000000 0.000000 0.000000
vn 0.000000 0.000000 1.000000
vn 0.000000 0.000000 1.000000
vn 0.000000 0.000000 1.000000
vn 0.000000 0.000000 1.000000
vn 0.000000 -1.000000 0.000000
vn 0.000000 -1.000000 -0.000000
vn 0.000000 -1.000000 -0.000000
vn 0.000000 -1.000000 -0.000000
vn 0.000000 -1.000000 0.000000
vn 0.000000 -1.000000 0.000000
vn 0.000000 -1.000000 0.000000
vn 0.000000 -1.000000 0.000000
vn 0.000000 1.000000 0.000000
vn 0.000000 1.000000 0.000000
vn 0.000000 1.000000 0.000000
vn 0.000000 1.000000 0.000000
vn 0.000000 1.000000 0.000000
vn 0.000000 1.000000 0.000000
vn 0.000000 1.000000 0.000000
vn 0.000000 1.000000 0.000000
vn 0.000000 0.000000 -1.000000
vn 0.000000 0.000000 -1.000000
vn 0.000000 0.000000 -1.000000
vn 0.000000 0.000000 -1.000000
vn -1.000000 0.000000 0.000000
vn -1.000000 0.000000 0.000000
vn -1.000000 0.000000 0.000000
vn -1.000000 0.000000 0.000000
s 1
g pCube452
usemtl phong8SG
f 1/1/1 2/2/2 4/4/3
f 4/4/3 2/2/2 3/3/4
s 2
f 5/5/5 1/6/6 6/8/7
f 6/8/7 1/6/6 4/7/8
s 3
usemtl phong10SG
f 7/9/9 8/10/10 10/12/11
f 10/12/11 8/10/10 9/11/12
s 4
usemtl phong8SG
f 6/13/13 7/14/14 5/16/15
f 5/16/15 7/14/14 10/15/16
s 5
usemtl phong10SG
f 11/17/17 12/18/18 14/20/19
f 14/20/19 12/18/18 13/19/20
s 6
f 8/10/21 11/17/22 9/11/23
f 9/11/23 11/17/22 14/20/24
s 7
f 15/21/25 12/22/26 3/28/27
f 3/28/27 12/22/26 4/27/28
f 12/22/26 11/23/29 4/27/28
f 4/27/28 11/23/29 6/26/30
f 8/24/31 7/25/32 11/23/29
f 11/23/29 7/25/32 6/26/30
s 8
f 9/29/33 14/30/34 10/36/35
f 10/36/35 14/30/34 5/35/36
f 14/30/34 13/31/37 5/35/36
f 5/35/36 13/31/37 1/34/38
f 16/32/39 2/33/40 13/31/37
f 13/31/37 2/33/40 1/34/38
s 9
f 16/37/41 13/38/42 15/40/43
f 15/40/43 13/38/42 12/39/44
s 10
f 15/41/45 3/42/46 16/44/47
f 16/44/47 3/42/46 2/43/48
g default
v -2.512140 3.333115 0.761337
v -3.613001 3.333115 0.761337
v -3.613001 3.116510 0.761337
v -2.512140 3.116510 0.761337
v -2.512140 3.333115 3.010156
v -2.512140 3.116510 3.010156
v -3.613001 3.116510 3.010156
v -3.613001 3.116510 3.667385
v -3.613001 3.333115 3.667385
v -3.613001 3.333115 3.010156
v 3.613001 3.116510 3.667385
v 3.613001 3.116510 -3.667385
v 3.613001 3.333115 -3.667385
v 3.613001 3.333115 3.667385
v -3.613001 3.116510 -3.667385
v -3.613001 3.333115 -3.667385
vt 0.005640 0.221408
vt 0.246016 0.221408
vt 0.246016 0.014416
vt 0.005640 0.014416
vt 0.260288 0.296502
vt 0.010288 0.296502
vt 0.010288 0.503494
vt 0.260288 0.503494
vt 0.473002 0.000000
vt 0.495403 0.000000
vt 0.495403 0.250000
vt 0.473002 0.250000
vt 0.609755 0.014416
vt 0.369378 0.014416
vt 0.369378 0.221408
vt 0.609755 0.221408
vt 0.745403 0.000000
vt 0.995403 0.000000
vt 0.995403 0.250000
vt 0.745403 0.250000
vt 0.290559 0.999106
vt 0.999106 0.999106
vt 0.999106 0.290559
vt 0.290559 0.290559
vt 0.290559 0.354048
vt 0.398504 0.354048
vt 0.398504 0.571286
vt 0.290559 0.571286
vt 0.290980 0.289235
vt 1.002174 0.289235
vt 1.002174 1.000429
vt 0.290980 1.000429
vt 0.290980 0.571011
vt 0.399329 0.571011
vt 0.399329 0.352962
vt 0.290980 0.352962
vt -0.001913 -0.000805
vt 0.248087 -0.000805
vt 0.248087 0.249195
vt -0.001913 0.249195
vt 0.245403 0.000000
vt 0.396352 0.000000
vt 0.396352 0.250000
vt 0.245403 0.250000
vn 0.000000 0.000000 1.000000
vn 0.000000 0.000000 1.000000
vn 0.000000 0.000000 1.000000
vn 0.000000 0.000000 1.000000
vn -1.000000 0.000000 0.000000
vn -1.000000 0.000000 0.000000
vn -1.000000 0.000000 0.000000
vn -1.000000 0.000000 0.000000
vn -1.000000 0.000000 0.000000
vn -1.000000 0.000000 0.000000
vn -1.000000 0.000000 0.000000
vn -1.000000 0.000000 0.000000
vn 0.000000 0.000000 -1.000000
vn 0.000000 0.000000 -1.000000
vn 0.000000 0.000000 -1.000000
vn 0.000000 0.000000 -1.000000
vn 1.000000 0.000000 0.000000
vn 1.000000 0.000000 0.000000
vn 1.000000 0.000000 0.000000
vn 1.000000 0.000000 0.000000
vn 0.000000 0.000000 1.000000
vn 0.000000 0.000000 1.000000
vn 0.000000 0.000000 1.000000
vn 0.000000 0.000000 1.000000
vn 0.000000 -1.000000 0.000000
vn 0.000000 -1.000000 -0.000000
vn 0.000000 -1.000000 -0.000000
vn 0.000000 -1.000000 -0.000000
vn 0.000000 -1.000000 0.000000
vn 0.000000 -1.000000 0.000000
vn 0.000000 -1.000000 0.000000
vn 0.000000 -1.000000 0.000000
vn 0.000000 1.000000 0.000000
vn 0.000000 1.000000 0.000000
vn 0.000000 1.000000 0.000000
vn 0.000000 1.000000 0.000000
vn 0.000000 1.000000 0.000000
vn 0.000000 1.000000 0.000000
vn 0.000000 1.000000 0.000000
vn 0.000000 1.000000 0.000000
vn 0.000000 0.000000 -1.000000
vn 0.000000 0.000000 -1.000000
vn 0.000000 0.000000 -1.000000
vn 0.000000 0.000000 -1.000000
vn -1.000000 0.000000 0.000000
vn -1.000000 0.000000 0.000000
vn -1.000000 0.000000 0.000000
vn -1.000000 0.000000 0.000000
s 1
g pCube452
f 17/45/49 18/46/50 20/48/51
f 20/48/51 18/46/50 19/47/52
s 2
f 21/49/53 17/50/54 22/52/55
f 22/52/55 17/50/54 20/51/56
s 3
f 23/53/57 24/54/58 26/56/59
f 26/56/59 24/54/58 25/55/60
s 4
f 22/57/61 23/58/62 21/60/63
f 21/60/63 23/58/62 26/59/64
s 5
f 27/61/65 28/62/66 30/64/67
f 30/64/67 28/62/66 29/63/68
s 6
f 24/54/69 27/61/70 25/55/71
f 25/55/71 27/61/70 30/64/72
s 7
f 31/65/73 28/66/74 19/72/75
f 19/72/75 28/66/74 20/71/76
f 28/66/74 27/67/77 20/71/76
f 20/71/76 27/67/77 22/70/78
f 24/68/79 23/69/80 27/67/77
f 27/67/77 23/69/80 22/70/78
s 8
f 25/73/81 30/74/82 26/80/83
f 26/80/83 30/74/82 21/79/84
f 30/74/82 29/75/85 21/79/84
f 21/79/84 29/75/85 17/78/86
f 32/76/87 18/77/88 29/75/85
f 29/75/85 18/77/88 17/78/86
s 9
f 32/81/89 29/82/90 31/84/91
f 31/84/91 29/82/90 28/83/92
s 10
f 31/85/93 19/86/94 32/88/95
f 32/88/95 19/86/94 18/87/96
