# This file uses centimeters as units for non-parametric coordinates.

mtllib Piso2.mtl
g default
v -1.124410 -0.014500 2.560747
v -1.124410 -0.014500 3.639253
v -1.124410 0.214500 3.639253
v -1.124410 0.214500 2.560747
v -0.721267 0.214500 2.791403
v -0.721267 0.214500 3.639253
v -0.721267 -0.014500 3.639253
v -0.721267 -0.014500 2.791403
v 1.124410 0.214500 2.560747
v 1.124410 -0.014500 2.560747
v 0.721267 0.214500 2.791403
v 0.721267 -0.014500 2.791403
v 0.721267 -0.014500 3.639253
v 0.721267 0.214500 3.639253
v 1.124410 -0.014500 3.639253
v 1.124410 0.214500 3.639253
vt 0.005640 0.000000
vt 0.255640 0.000000
vt 0.255640 0.250000
vt 0.005640 0.250000
vt 0.005640 0.208735
vt 0.179780 0.208735
vt 0.179780 0.041266
vt 0.005640 0.041266
vt 0.010288 0.267910
vt 0.260288 0.267910
vt 0.260288 0.517910
vt 0.010288 0.517910
vt 0.300457 0.000000
vt 0.300457 0.250000
vt 0.260288 0.309176
vt 0.010288 0.309176
vt 0.010288 0.476645
vt 0.260288 0.476645
vt 0.609755 0.041266
vt 0.435614 0.041266
vt 0.435614 0.208735
vt 0.609755 0.208735
vt 0.359755 0.000000
vt 0.609755 0.000000
vt 0.609755 0.250000
vt 0.359755 0.250000
vt 0.314937 0.000000
vt 0.314937 0.250000
vt 0.260288 0.767910
vt 0.215470 0.767910
vt 0.215470 0.571377
vt 0.055105 0.571377
vt 0.055105 0.767910
vt 0.010288 0.767910
vt 0.283776 0.277207
vt 0.409261 0.277104
vt 0.409477 0.541013
vt 0.858491 0.540646
vt 0.858275 0.276738
vt 0.983761 0.276635
vt 0.984035 0.612339
vt 0.284050 0.612911
vn -1.000000 0.000000 0.000000
vn -1.000000 0.000000 0.000000
vn -1.000000 0.000000 0.000000
vn -1.000000 0.000000 0.000000
vn 1.000000 0.000000 0.000000
vn 1.000000 0.000000 0.000000
vn 1.000000 0.000000 0.000000
vn 1.000000 0.000000 0.000000
vn 0.000000 0.000000 -1.000000
vn 0.000000 0.000000 -1.000000
vn 0.000000 0.000000 -1.000000
vn 0.000000 0.000000 -1.000000
vn 0.000000 0.000000 1.000000
vn 0.000000 0.000000 1.000000
vn 0.000000 0.000000 1.000000
vn 0.000000 0.000000 1.000000
vn 0.000000 0.000000 1.000000
vn 0.000000 0.000000 1.000000
vn 0.000000 0.000000 1.000000
vn 0.000000 0.000000 1.000000
vn -1.000000 0.000000 0.000000
vn -1.000000 0.000000 0.000000
vn -1.000000 0.000000 0.000000
vn -1.000000 0.000000 0.000000
vn 1.000000 0.000000 0.000000
vn 1.000000 0.000000 0.000000
vn 1.000000 0.000000 0.000000
vn 1.000000 0.000000 0.000000
vn 0.000000 0.000000 1.000000
vn 0.000000 0.000000 1.000000
vn 0.000000 0.000000 1.000000
vn 0.000000 0.000000 1.000000
vn 0.000000 -1.000000 0.000000
vn 0.000000 -1.000000 0.000000
vn 0.000000 -1.000000 0.000000
vn 0.000000 -1.000000 0.000000
vn 0.000000 -1.000000 0.000000
vn 0.000000 -1.000000 0.000000
vn 0.000000 -1.000000 0.000000
vn 0.000000 -1.000000 0.000000
vn 0.000000 1.000000 0.000000
vn 0.000000 1.000000 0.000000
vn 0.000000 1.000000 0.000000
vn 0.000000 1.000000 0.000000
vn 0.000000 1.000000 0.000000
vn 0.000000 1.000000 0.000000
vn 0.000000 1.000000 0.000000
vn 0.000000 1.000000 0.000000
s 1
g pasted__pCube277 group
usemtl phong8SG
f 1/1/1 2/2/2 4/4/3
f 4/4/3 2/2/2 3/3/4
s 2
f 5/5/5 6/6/6 8/8/7
f 8/8/7 6/6/6 7/7/8
s 3
f 4/9/9 9/10/10 1/12/11
f 1/12/11 9/10/10 10/11/12
s 4
f 2/2/13 7/13/14 3/3/15
f 3/3/15 7/13/14 6/14/16
s 5
f 11/15/17 5/16/18 12/18/19
f 12/18/19 5/16/18 8/17/20
s 6
f 12/19/21 13/20/22 11/22/23
f 11/22/23 13/20/22 14/21/24
s 7
f 15/23/25 10/24/26 16/26/27
f 16/26/27 10/24/26 9/25/28
s 8
f 13/27/29 15/23/30 14/28/31
f 14/28/31 15/23/30 16/26/32
s 9
f 15/29/33 13/30/34 10/11/35
f 13/30/34 12/31/36 10/11/35
f 10/11/35 12/31/36 1/12/37
f 12/31/36 8/32/38 1/12/37
f 1/12/37 8/32/38 2/34/39
f 8/32/38 7/33/40 2/34/39
s 10
f 3/35/41 6/36/42 4/42/43
f 6/36/42 5/37/44 4/42/43
f 4/42/43 5/37/44 9/41/45
f 5/37/44 11/38/46 9/41/45
f 9/41/45 11/38/46 16/40/47
f 11/38/46 14/39/48 16/40/47
g default
v -1.124410 -0.014500 2.560747
v -1.124410 -0.014500 3.639253
v -1.124410 0.214500 3.639253
v -1.124410 0.214500 2.560747
v -0.721267 0.214500 2.791403
v -0.721267 0.214500 3.639253
v -0.721267 -0.014500 3.639253
v -0.721267 -0.014500 2.791403
v 1.124410 0.214500 2.560747
v 1.124410 -0.014500 2.560747
v 0.721267 0.214500 2.791403
v 0.721267 -0.014500 2.791403
v 0.721267 -0.014500 3.639253
v 0.721267 0.214500 3.639253
v 1.124410 -0.014500 3.639253
v 1.124410 0.214500 3.639253
vt 0.005640 0.000000
vt 0.255640 0.000000
vt 0.255640 0.250000
vt 0.005640 0.250000
vt 0.005640 0.208735
vt 0.179780 0.208735
vt 0.179780 0.041266
vt 0.005640 0.041266
vt 0.010288 0.267910
vt 0.260288 0.267910
vt 0.260288 0.517910
vt 0.010288 0.517910
vt 0.300457 0.000000
vt 0.300457 0.250000
vt 0.260288 0.309176
vt 0.010288 0.309176
vt 0.010288 0.476645
vt 0.260288 0.476645
vt 0.609755 0.041266
vt 0.435614 0.041266
vt 0.435614 0.208735
vt 0.609755 0.208735
vt 0.359755 0.000000
vt 0.609755 0.000000
vt 0.609755 0.250000
vt 0.359755 0.250000
vt 0.314937 0.000000
vt 0.314937 0.250000
vt 0.260288 0.767910
vt 0.215470 0.767910
vt 0.215470 0.571377
vt 0.055105 0.571377
vt 0.055105 0.767910
vt 0.010288 0.767910
vt 0.283776 0.277207
vt 0.409261 0.277104
vt 0.409477 0.541013
vt 0.858491 0.540646
vt 0.858275 0.276738
vt 0.983761 0.276635
vt 0.984035 0.612339
vt 0.284050 0.612911
vn -1.000000 0.000000 0.000000
vn -1.000000 0.000000 0.000000
vn -1.000000 0.000000 0.000000
vn -1.000000 0.000000 0.000000
vn 1.000000 0.000000 0.000000
vn 1.000000 0.000000 0.000000
vn 1.000000 0.000000 0.000000
vn 1.000000 0.000000 0.000000
vn 0.000000 0.000000 -1.000000
vn 0.000000 0.000000 -1.000000
vn 0.000000 0.000000 -1.000000
vn 0.000000 0.000000 -1.000000
vn 0.000000 0.000000 1.000000
vn 0.000000 0.000000 1.000000
vn 0.000000 0.000000 1.000000
vn 0.000000 0.000000 1.000000
vn 0.000000 0.000000 1.000000
vn 0.000000 0.000000 1.000000
vn 0.000000 0.000000 1.000000
vn 0.000000 0.000000 1.000000
vn -1.000000 0.000000 0.000000
vn -1.000000 0.000000 0.000000
vn -1.000000 0.000000 0.000000
vn -1.000000 0.000000 0.000000
vn 1.000000 0.000000 0.000000
vn 1.000000 0.000000 0.000000
vn 1.000000 0.000000 0.000000
vn 1.000000 0.000000 0.000000
vn 0.000000 0.000000 1.000000
vn 0.000000 0.000000 1.000000
vn 0.000000 0.000000 1.000000
vn 0.000000 0.000000 1.000000
vn 0.000000 -1.000000 0.000000
vn 0.000000 -1.000000 0.000000
vn 0.000000 -1.000000 0.000000
vn 0.000000 -1.000000 0.000000
vn 0.000000 -1.000000 0.000000
vn 0.000000 -1.000000 0.000000
vn 0.000000 -1.000000 0.000000
vn 0.000000 -1.000000 0.000000
vn 0.000000 1.000000 0.000000
vn 0.000000 1.000000 0.000000
vn 0.000000 1.000000 0.000000
vn 0.000000 1.000000 0.000000
vn 0.000000 1.000000 0.000000
vn 0.000000 1.000000 0.000000
vn 0.000000 1.000000 0.000000
vn 0.000000 1.000000 0.000000
s 1
g pasted__pCube277 group
f 17/43/49 18/44/50 20/46/51
f 20/46/51 18/44/50 19/45/52
s 2
f 21/47/53 22/48/54 24/50/55
f 24/50/55 22/48/54 23/49/56
s 3
f 20/51/57 25/52/58 17/54/59
f 17/54/59 25/52/58 26/53/60
s 4
f 18/44/61 23/55/62 19/45/63
f 19/45/63 23/55/62 22/56/64
s 5
f 27/57/65 21/58/66 28/60/67
f 28/60/67 21/58/66 24/59/68
s 6
f 28/61/69 29/62/70 27/64/71
f 27/64/71 29/62/70 30/63/72
s 7
f 31/65/73 26/66/74 32/68/75
f 32/68/75 26/66/74 25/67/76
s 8
f 29/69/77 31/65/78 30/70/79
f 30/70/79 31/65/78 32/68/80
s 9
f 31/71/81 29/72/82 26/53/83
f 29/72/82 28/73/84 26/53/83
f 26/53/83 28/73/84 17/54/85
f 28/73/84 24/74/86 17/54/85
f 17/54/85 24/74/86 18/76/87
f 24/74/86 23/75/88 18/76/87
s 10
f 19/77/89 22/78/90 20/84/91
f 22/78/90 21/79/92 20/84/91
f 20/84/91 21/79/92 25/83/93
f 21/79/92 27/80/94 25/83/93
f 25/83/93 27/80/94 32/82/95
f 27/80/94 30/81/96 32/82/95
