# This file uses centimeters as units for non-parametric coordinates.

mtllib Piso1.mtl
g default
v -3.657998 -0.014369 3.642849
v -1.124410 -0.014369 3.642849
v -1.124410 0.214369 3.642849
v -3.657998 0.214369 3.642849
v -1.124410 0.214369 2.561482
v -1.124410 -0.014369 2.561482
v 1.124410 0.214369 2.561482
v 1.124410 -0.014369 2.561482
v 3.657998 -0.014369 3.642849
v 3.657998 -0.014369 -3.673151
v 3.657998 0.214369 -3.673151
v 3.657998 0.214369 3.642849
v 1.124410 -0.014369 3.642849
v 1.124410 0.214369 3.642849
v -3.657998 -0.014369 -3.673151
v -3.657998 0.214369 -3.673151
vt 0.262271 0.000000
vt 0.348848 0.000000
vt 0.348848 0.250000
vt 0.262271 0.250000
vt 0.012271 0.227956
vt 0.229111 0.227956
vt 0.229111 0.022044
vt 0.012271 0.022044
vt 0.260288 0.283323
vt 0.010288 0.283323
vt 0.010288 0.489235
vt 0.260288 0.489235
vt 0.459222 0.000000
vt 0.709222 0.000000
vt 0.709222 0.250000
vt 0.459222 0.250000
vt 0.709222 0.022044
vt 0.492382 0.022044
vt 0.492382 0.227956
vt 0.709222 0.227956
vt 0.372645 0.000000
vt 0.372645 0.250000
vt 0.010288 0.511279
vt 0.260288 0.511279
vt 0.260288 0.761279
vt 0.173711 0.761279
vt 0.173711 0.724327
vt 0.096865 0.724327
vt 0.096865 0.761279
vt 0.010288 0.761279
vt 0.292634 0.286002
vt 0.532708 0.286002
vt 0.260288 0.261279
vt 0.010288 0.261279
vt 0.012271 0.000000
vt 0.012271 0.250000
vt 0.532708 0.388469
vt 0.745799 0.388469
vt 0.745799 0.286002
vt 0.985874 0.286002
vt 0.985874 0.979243
vt 0.292634 0.979243
vn 0.000000 0.000000 1.000000
vn 0.000000 0.000000 1.000000
vn 0.000000 0.000000 1.000000
vn 0.000000 0.000000 1.000000
vn 1.000000 0.000000 0.000000
vn 1.000000 0.000000 0.000000
vn 1.000000 0.000000 0.000000
vn 1.000000 0.000000 0.000000
vn 0.000000 0.000000 1.000000
vn 0.000000 0.000000 1.000000
vn 0.000000 0.000000 1.000000
vn 0.000000 0.000000 1.000000
vn 1.000000 0.000000 0.000000
vn 1.000000 0.000000 0.000000
vn 1.000000 0.000000 0.000000
vn 1.000000 0.000000 0.000000
vn -1.000000 0.000000 0.000000
vn -1.000000 0.000000 0.000000
vn -1.000000 0.000000 0.000000
vn -1.000000 0.000000 0.000000
vn 0.000000 0.000000 1.000000
vn 0.000000 0.000000 1.000000
vn 0.000000 0.000000 1.000000
vn 0.000000 0.000000 1.000000
vn 0.000000 -1.000000 0.000000
vn 0.000000 -1.000000 0.000000
vn 0.000000 -1.000000 0.000000
vn 0.000000 -1.000000 0.000000
vn 0.000000 -1.000000 0.000000
vn 0.000000 -1.000000 0.000000
vn 0.000000 -1.000000 0.000000
vn 0.000000 -1.000000 0.000000
vn 0.000000 1.000000 0.000000
vn 0.000000 1.000000 0.000000
vn 0.000000 1.000000 0.000000
vn 0.000000 1.000000 0.000000
vn 0.000000 1.000000 0.000000
vn 0.000000 1.000000 0.000000
vn 0.000000 1.000000 0.000000
vn 0.000000 1.000000 0.000000
vn -1.000000 0.000000 0.000000
vn -1.000000 0.000000 0.000000
vn -1.000000 0.000000 0.000000
vn -1.000000 0.000000 0.000000
vn 0.000000 0.000000 -1.000000
vn 0.000000 0.000000 -1.000000
vn 0.000000 0.000000 -1.000000
vn 0.000000 0.000000 -1.000000
s 1
g pasted__pCube275 group
usemtl phong7SG
f 1/1/1 2/2/2 4/4/3
f 4/4/3 2/2/2 3/3/4
s 2
f 5/5/5 3/6/6 6/8/7
f 6/8/7 3/6/6 2/7/8
s 3
f 7/9/9 5/10/10 8/12/11
f 8/12/11 5/10/10 6/11/12
s 4
f 9/13/13 10/14/14 12/16/15
f 12/16/15 10/14/14 11/15/16
s 5
f 8/17/17 13/18/18 7/20/19
f 7/20/19 13/18/18 14/19/20
s 6
f 13/21/21 9/13/22 14/22/23
f 14/22/23 9/13/22 12/16/24
s 7
f 15/23/25 10/24/26 1/30/27
f 9/25/28 13/26/29 10/24/26
f 13/26/29 8/27/30 10/24/26
f 2/29/31 1/30/27 6/28/32
f 1/30/27 10/24/26 6/28/32
f 10/24/26 8/27/30 6/28/32
s 9
f 4/31/33 3/32/34 16/42/35
f 3/32/34 5/37/36 16/42/35
f 16/42/35 5/37/36 11/41/37
f 5/37/36 7/38/38 11/41/37
f 14/39/39 12/40/40 7/38/38
f 7/38/38 12/40/40 11/41/37
s 10
f 15/35/41 1/1/42 16/36/43
f 16/36/43 1/1/42 4/4/44
s 11
f 16/34/45 11/33/46 15/23/47
f 15/23/47 11/33/46 10/24/48
g default
v -3.657998 -0.014369 3.642849
v -1.124410 -0.014369 3.642849
v -1.124410 0.214369 3.642849
v -3.657998 0.214369 3.642849
v -1.124410 0.214369 2.561482
v -1.124410 -0.014369 2.561482
v 1.124410 0.214369 2.561482
v 1.124410 -0.014369 2.561482
v 3.657998 -0.014369 3.642849
v 3.657998 -0.014369 -3.673151
v 3.657998 0.214369 -3.673151
v 3.657998 0.214369 3.642849
v 1.124410 -0.014369 3.642849
v 1.124410 0.214369 3.642849
v -3.657998 -0.014369 -3.673151
v -3.657998 0.214369 -3.673151
vt 0.262271 0.000000
vt 0.348848 0.000000
vt 0.348848 0.250000
vt 0.262271 0.250000
vt 0.012271 0.227956
vt 0.229111 0.227956
vt 0.229111 0.022044
vt 0.012271 0.022044
vt 0.260288 0.283323
vt 0.010288 0.283323
vt 0.010288 0.489235
vt 0.260288 0.489235
vt 0.459222 0.000000
vt 0.709222 0.000000
vt 0.709222 0.250000
vt 0.459222 0.250000
vt 0.709222 0.022044
vt 0.492382 0.022044
vt 0.492382 0.227956
vt 0.709222 0.227956
vt 0.372645 0.000000
vt 0.372645 0.250000
vt 0.010288 0.511279
vt 0.260288 0.511279
vt 0.260288 0.761279
vt 0.173711 0.761279
vt 0.173711 0.724327
vt 0.096865 0.724327
vt 0.096865 0.761279
vt 0.010288 0.761279
vt 0.292634 0.286002
vt 0.532708 0.286002
vt 0.260288 0.261279
vt 0.010288 0.261279
vt 0.012271 0.000000
vt 0.012271 0.250000
vt 0.532708 0.388469
vt 0.745799 0.388469
vt 0.745799 0.286002
vt 0.985874 0.286002
vt 0.985874 0.979243
vt 0.292634 0.979243
vn 0.000000 0.000000 1.000000
vn 0.000000 0.000000 1.000000
vn 0.000000 0.000000 1.000000
vn 0.000000 0.000000 1.000000
vn 1.000000 0.000000 0.000000
vn 1.000000 0.000000 0.000000
vn 1.000000 0.000000 0.000000
vn 1.000000 0.000000 0.000000
vn 0.000000 0.000000 1.000000
vn 0.000000 0.000000 1.000000
vn 0.000000 0.000000 1.000000
vn 0.000000 0.000000 1.000000
vn 1.000000 0.000000 0.000000
vn 1.000000 0.000000 0.000000
vn 1.000000 0.000000 0.000000
vn 1.000000 0.000000 0.000000
vn -1.000000 0.000000 0.000000
vn -1.000000 0.000000 0.000000
vn -1.000000 0.000000 0.000000
vn -1.000000 0.000000 0.000000
vn 0.000000 0.000000 1.000000
vn 0.000000 0.000000 1.000000
vn 0.000000 0.000000 1.000000
vn 0.000000 0.000000 1.000000
vn 0.000000 -1.000000 0.000000
vn 0.000000 -1.000000 0.000000
vn 0.000000 -1.000000 0.000000
vn 0.000000 -1.000000 0.000000
vn 0.000000 -1.000000 0.000000
vn 0.000000 -1.000000 0.000000
vn 0.000000 -1.000000 0.000000
vn 0.000000 -1.000000 0.000000
vn 0.000000 1.000000 0.000000
vn 0.000000 1.000000 0.000000
vn 0.000000 1.000000 0.000000
vn 0.000000 1.000000 0.000000
vn 0.000000 1.000000 0.000000
vn 0.000000 1.000000 0.000000
vn 0.000000 1.000000 0.000000
vn 0.000000 1.000000 0.000000
vn -1.000000 0.000000 0.000000
vn -1.000000 0.000000 0.000000
vn -1.000000 0.000000 0.000000
vn -1.000000 0.000000 0.000000
vn 0.000000 0.000000 -1.000000
vn 0.000000 0.000000 -1.000000
vn 0.000000 0.000000 -1.000000
vn 0.000000 0.000000 -1.000000
s 1
g pasted__pCube275 group
f 17/43/49 18/44/50 20/46/51
f 20/46/51 18/44/50 19/45/52
s 2
f 21/47/53 19/48/54 22/50/55
f 22/50/55 19/48/54 18/49/56
s 3
f 23/51/57 21/52/58 24/54/59
f 24/54/59 21/52/58 22/53/60
s 4
f 25/55/61 26/56/62 28/58/63
f 28/58/63 26/56/62 27/57/64
s 5
f 24/59/65 29/60/66 23/62/67
f 23/62/67 29/60/66 30/61/68
s 6
f 29/63/69 25/55/70 30/64/71
f 30/64/71 25/55/70 28/58/72
s 7
f 31/65/73 26/66/74 17/72/75
f 25/67/76 29/68/77 26/66/74
f 29/68/77 24/69/78 26/66/74
f 18/71/79 17/72/75 22/70/80
f 17/72/75 26/66/74 22/70/80
f 26/66/74 24/69/78 22/70/80
s 9
f 20/73/81 19/74/82 32/84/83
f 19/74/82 21/79/84 32/84/83
f 32/84/83 21/79/84 27/83/85
f 21/79/84 23/80/86 27/83/85
f 30/81/87 28/82/88 23/80/86
f 23/80/86 28/82/88 27/83/85
s 10
f 31/77/89 17/43/90 32/78/91
f 32/78/91 17/43/90 20/46/92
s 11
f 32/76/93 27/75/94 31/65/95
f 31/65/95 27/75/94 26/66/96
