# This file uses centimeters as units for non-parametric coordinates.

mtllib Cojin.mtl
g default
v -2.572936 0.703559 2.596989
v 0.000000 1.048438 2.255621
v 2.572936 0.703559 2.596989
v -2.572936 1.596442 2.596989
v 0.000000 1.596442 2.255621
v 2.572936 1.596442 2.596989
v -2.160270 1.596442 0.000000
v 0.000000 1.596442 0.000000
v 2.572936 1.596442 0.000000
v -2.572936 1.596442 -2.596989
v 0.000000 1.596442 -2.596989
v 2.572936 1.596442 -2.596989
v -2.572936 0.703559 -2.596989
v 0.000000 1.000000 -2.596989
v 2.572936 0.703559 -2.596989
v -2.160270 1.048438 0.000000
v 2.572936 1.000000 0.000000
vt -0.000000 0.321982
vt 0.500000 0.678019
vt 0.500000 0.678019
vt -0.000000 0.321982
vt 1.000000 0.321982
vt 1.000000 0.321982
vt -0.000000 0.000000
vt 0.500000 0.065724
vt 0.500000 0.500000
vt -0.000000 0.500000
vt 0.500000 0.500000
vt 0.500000 0.500000
vt -0.000000 0.500000
vt 1.000000 0.500000
vt 1.000000 0.500000
vt 0.500000 0.500000
vt 0.500000 1.000000
vt 0.500000 1.000000
vt 0.500000 0.500000
vt 0.321981 1.000000
vt 0.678018 0.500000
vt 0.678018 0.500000
vt 0.321981 1.000000
vt 0.080193 0.500000
vt 1.000000 0.000000
vt 1.000000 0.500000
vt 0.500000 1.000000
vt -0.000000 1.000000
vt 1.000000 1.000000
vt 0.500000 0.000000
vt 0.500000 0.000000
vt 0.321981 0.000000
vt 0.321981 0.000000
vn 0.131524 0.000000 0.991313
vn 0.000000 0.000000 1.000000
vn 0.131524 0.000000 0.991313
vn 0.000000 0.000000 1.000000
vn -0.131524 0.000000 0.991313
vn -0.131524 0.000000 0.991313
vn 0.000000 1.000000 0.000000
vn 0.000000 1.000000 0.000000
vn 0.000000 1.000000 0.000000
vn 0.000000 1.000000 0.000000
vn 0.000000 1.000000 0.000000
vn 0.000000 1.000000 0.000000
vn 0.000000 1.000000 -0.000000
vn 0.000000 1.000000 -0.000000
vn 0.000000 1.000000 0.000000
vn 0.000000 0.000000 -1.000000
vn 0.000000 0.000000 -1.000000
vn 0.000000 0.000000 -1.000000
vn 0.000000 0.000000 -1.000000
vn 0.000000 0.000000 -1.000000
vn 0.000000 0.000000 -1.000000
vn 1.000000 0.000000 0.000000
vn 1.000000 0.000000 0.000000
vn 1.000000 0.000000 0.000000
vn 1.000000 0.000000 0.000000
vn 1.000000 0.000000 0.000000
vn 1.000000 0.000000 0.000000
vn -0.987609 0.000000 0.156933
vn -1.000000 0.000000 0.000000
vn -0.987609 0.000000 0.156932
vn -1.000000 0.000000 0.000000
vn -0.987609 0.000000 -0.156933
vn -0.987609 0.000000 -0.156932
s 1
g pCube5
usemtl lambert2SG
f 1/1/1 2/2/2 4/4/3
f 4/4/3 2/2/2 5/3/4
f 3/5/5 6/6/6 2/2/2
f 2/2/2 6/6/6 5/3/4
s 2
f 4/7/7 5/8/8 7/24/9
f 7/24/9 5/8/8 8/9/10
f 6/25/11 9/26/12 5/8/8
f 5/8/8 9/26/12 8/9/10
f 8/9/10 11/27/13 7/24/9
f 7/24/9 11/27/13 10/28/14
f 8/9/10 9/26/12 11/27/13
f 11/27/13 9/26/12 12/29/15
s 3
f 11/11/16 14/12/17 10/10/18
f 10/10/18 14/12/17 13/13/19
f 11/11/16 12/14/20 14/12/17
f 14/12/17 12/14/20 15/15/21
s 4
f 15/17/22 12/18/23 17/16/24
f 17/16/24 12/18/23 9/19/25
f 3/30/26 17/16/24 6/31/27
f 6/31/27 17/16/24 9/19/25
s 5
f 13/20/28 16/21/29 10/23/30
f 10/23/30 16/21/29 7/22/31
f 1/32/32 4/33/33 16/21/29
f 16/21/29 4/33/33 7/22/31
